<?xml version="1.0" encoding="utf-8"?>
<!-- Generator: Adobe Illustrator 20.1.0, SVG Export Plug-In . SVG Version: 6.00 Build 0)  -->
<svg version="1.1" xmlns="http://www.w3.org/2000/svg" xmlns:xlink="http://www.w3.org/1999/xlink" x="0px" y="0px"
	 viewBox="0 0 1000 1000" style="enable-background:new 0 0 1000 1000;" xml:space="preserve">
<g id="Layer_2">
	<rect x="-28.1" y="-29.9" style="fill:#E0EFFB;" width="1056.2" height="1059.8"/>
</g>
<g id="Layer_3">
	<g>
		<path style="fill:#D6A528;" d="M230.4,303.1c14.4-16.6,44.7-46,79.9-46s65.5,29.4,79.9,46c1.5-1.7,2.8-3.3,3.9-4.6
			c3-3.7,3-9.2,0-12.9c-12.1-15-45-50.7-83.7-50.7s-71.6,35.7-83.7,50.7c-3,3.7-3,9.2,0,12.9C227.7,299.9,229,301.4,230.4,303.1z"/>
		<path style="fill:#D6A528;" d="M390.2,332.9c-14.4,16.6-44.7,46-79.9,46s-65.5-29.4-79.9-46c-1.5,1.7-2.8,3.3-3.9,4.6
			c-3,3.7-3,9.2,0,12.9c12.1,15,45,50.7,83.7,50.7s71.6-35.7,83.7-50.7c3-3.7,3-9.2,0-12.9C392.9,336.1,391.6,334.6,390.2,332.9z"/>
		<path style="fill:#F5C227;" d="M409.3,310.9c-14.3-16.5-53.2-55.7-99-55.7c-39.6,0-68.2,37.9-91.9,48c-5.6,2.4-11.3,0-11.3,0v29.7
			c0,0,5.7-2.4,11.3,0c23.7,10.1,52.3,48,91.9,48c45.8,0,84.7-39.3,99-55.7C412.8,321,412.8,315,409.3,310.9z"/>
		<path style="fill:#D6A528;" d="M410.8,322.4h-10.2c-2.4,0-4.3-2-4.3-4.3l0,0c0-2.4,2-4.3,4.3-4.3h10.2c2.4,0,4.3,2,4.3,4.3l0,0
			C415.2,320.4,413.2,322.4,410.8,322.4z"/>
		<path style="fill:#D6A528;" d="M207.2,332.9l-23,7.7c-3.5,1.2-7-1.4-7-5.1v-34.9c0-3.6,3.6-6.2,7-5.1l23,7.7V332.9z"/>
		<circle style="fill:#F6D36A;" cx="279.2" cy="343.6" r="4.4"/>
		<circle style="fill:#F6D36A;" cx="272.3" cy="318.9" r="6.9"/>
		<circle style="fill:#F6D36A;" cx="242.2" cy="317.1" r="5.4"/>
		<circle style="fill:#F6D36A;" cx="272.3" cy="290.9" r="5.4"/>
		<circle style="fill:#F6D36A;" cx="258.1" cy="337.7" r="4"/>
		<circle style="fill:#F6D36A;" cx="299.6" cy="307.4" r="6.2"/>
		<circle style="fill:#F6D36A;" cx="318.9" cy="358.6" r="4.8"/>
		<circle style="fill:#F6D36A;" cx="303.4" cy="337" r="4.1"/>
		<circle style="fill:#F6D36A;" cx="307.7" cy="275.8" r="4.4"/>
		<path style="fill:#D6A528;" d="M316.2,319.8c0,3.5,6.1,6.1,12.5,5.4c13.2-1.4,22.6-4.9,22.6-9c0-4.1-9.4-7.6-22.6-9
			c-6.5-0.7-12.5,1.9-12.5,5.4V319.8z"/>
		<circle style="fill:#F6D36A;" cx="343.8" cy="341.7" r="2.5"/>
		<circle style="fill:#F6D36A;" cx="290.5" cy="363.4" r="4.8"/>
		<circle style="fill:#F6D36A;" cx="250.7" cy="299.6" r="3.3"/>
		<circle style="fill:#F6D36A;" cx="224.3" cy="317.1" r="2.9"/>
		<circle style="fill:#F6D36A;" cx="328.2" cy="289.8" r="4"/>
		<circle style="fill:#FFFFFF;" cx="372.5" cy="313.6" r="8.7"/>
		<circle cx="372.5" cy="313.6" r="3.8"/>
	</g>
	<g>
		<path style="fill:#67A3D6;" d="M492.4,465.4l0.3-12.2c0.1-2.5,3.2-3.6,4.8-1.8l8,9.1c1.3,1.4,0.7,3.7-1.1,4.4l-8.3,3.2
			C494.3,468.7,492.3,467.3,492.4,465.4z"/>
		<path style="fill:#67A3D6;" d="M472.5,473.5l0.3-12.2c0.1-2.5,3.2-3.6,4.8-1.8l8,9.1c1.3,1.4,0.7,3.7-1.1,4.4l-8.3,3.2
			C474.4,476.9,472.4,475.5,472.5,473.5z"/>
		<path style="fill:#67A3D6;" d="M452.6,481.7l0.3-12.2c0.1-2.5,3.2-3.6,4.8-1.8l8,9.1c1.3,1.4,0.7,3.7-1.1,4.4l-8.3,3.2
			C454.5,485.1,452.6,483.7,452.6,481.7z"/>
		<path style="fill:#67A3D6;" d="M492.4,530.8l0.3,12.2c0.1,2.5,3.2,3.6,4.8,1.8l8-9.1c1.3-1.4,0.7-3.7-1.1-4.4l-8.3-3.2
			C494.3,527.4,492.3,528.8,492.4,530.8z"/>
		<path style="fill:#67A3D6;" d="M472.5,522.6l0.3,12.2c0.1,2.5,3.2,3.6,4.8,1.8l8-9.1c1.3-1.4,0.7-3.7-1.1-4.4l-8.3-3.2
			C474.4,519.2,472.4,520.6,472.5,522.6z"/>
		<path style="fill:#67A3D6;" d="M452.6,514.4l0.3,12.2c0.1,2.5,3.2,3.6,4.8,1.8l8-9.1c1.3-1.4,0.7-3.7-1.1-4.4l-8.3-3.2
			C454.5,511,452.6,512.4,452.6,514.4z"/>
		<path style="fill:#67A3D6;" d="M562.2,551.8v21.1c0,3.1,3.9,4.5,5.8,2l16.9-21.1c1.7-2.1,0.2-5.3-2.6-5.3h-16.9
			C563.7,548.5,562.2,549.9,562.2,551.8z"/>
		<path style="fill:#67A3D6;" d="M534.9,451.9l-4.1-20.7c-0.6-3,3-5.1,5.3-3.2l20.7,17.4c2.1,1.8,1.2,5.2-1.5,5.7l-16.5,3.3
			C537,454.9,535.3,453.7,534.9,451.9z"/>
		<path style="fill:#67A3D6;" d="M565.3,444.4v-21.1c0-3.1,3.9-4.5,5.8-2l16.9,21.1c1.7,2.1,0.2,5.3-2.6,5.3h-16.9
			C566.7,447.7,565.3,446.2,565.3,444.4z"/>
		<g>
			<path style="fill:#85BCE7;" d="M621.2,447.7c-11.6-3.8-24.1-6.2-37.1-6.2c-63.2,0-167.7,56.6-167.7,56.6s104.5,56.6,167.7,56.6
				c11.8,0,23.1-2,33.8-5.2c-10.5-13.5-16.8-30.5-16.8-48.9C601.1,480.3,608.7,461.7,621.2,447.7z"/>
			<path style="fill:#ACDAF3;" d="M698.5,498.1c0,0-32.3-35.7-77.3-50.4c-12.5,14.1-20.1,32.6-20.1,52.9c0,18.4,6.3,35.4,16.8,48.9
				C664.6,535.6,698.5,498.1,698.5,498.1z"/>
		</g>
		<path style="fill:#67A3D6;" d="M384.4,451.4c-3.5,0-7,0.4-10.3,1.1c21.1,4.7,36.9,23.5,36.9,46c0,22.5-15.8,41.3-36.9,46
			c3.3,0.7,6.8,1.1,10.3,1.1c26.1,0,47.2-21.1,47.2-47.2C431.6,472.5,410.5,451.4,384.4,451.4z"/>
		<path style="fill:#67A3D6;" d="M566,485.7c-10.8,1.9-22.2,5.1-30.8,7.7c-6,1.8-6,7.6,0,9.4c8.6,2.6,20,5.8,30.8,7.7
			c4.8,0.9,9.6-1.6,9.6-5v-14.8C575.6,487.3,570.9,484.8,566,485.7z"/>
		<circle style="fill:#FFFFFF;" cx="633" cy="488.6" r="12"/>
		<circle cx="633" cy="488.6" r="6"/>
	</g>
	<g>
		<path style="fill:#C5D0D0;" d="M427.5,619.7c7.4-7.4,37.1-10.2,37.1-10.2s-16.2,21.6-21.4,32.6c5.2,11,21.4,32.6,21.4,32.6
			s-29.7-2.7-37.1-10.2c-6.1-6.1-7.2-15.2-3.4-22.4C420.3,634.9,421.4,625.8,427.5,619.7z"/>
		<path style="fill:#C5D0D0;" d="M329.5,606c0.5-1.1,0-34.5,0-34.5s-20.2,7.1-30.2,14.4c-13.3,9.7-15.9,20.1-15.9,20.1H329.5z"/>
		<path style="fill:#67A3D6;" d="M262.2,597.5c10.3-3.4,21.3-5.5,32.8-5.5c55.9,0,148.3,50.1,148.3,50.1s-92.4,50.1-148.3,50.1
			c-10.4,0-20.4-1.7-29.9-4.6c-41.3-12.3-71.3-45.5-71.3-45.5S222.4,610.5,262.2,597.5z"/>
		<circle style="fill:#FFFFFF;" cx="251.7" cy="633.8" r="10.6"/>
		<circle cx="251.7" cy="633.8" r="5.3"/>
		<path style="fill:#C5D0D0;" d="M314.3,634.5c5.6-2.1,15.6-4.2,19.9-5.1v25.3c-4.3-0.8-14.3-2.9-19.9-5.1
			c-9.7-3.7-11.5-7.6-11.5-7.6S304.7,638.2,314.3,634.5z"/>
	</g>
	<g>
		<path style="fill:#7E888C;" d="M633.8,678.5v14.2c0,3.8-3.1,6.9-6.9,6.9h-19c-3.8,0-6.9-3.1-6.9-6.9v-11.3c0-3.4,2.5-6.3,5.9-6.9
			l19-3C630,671,633.8,674.2,633.8,678.5z"/>
		<path style="fill:#7E888C;" d="M630.8,707.9l2.4,15.7c0.9,5.5-3,10.8-8.5,11.6l0,0c-5.5,0.9-10.8-3-11.6-8.5l-2.4-15.7
			c-0.9-5.5,3-10.8,8.5-11.6h0C624.7,698.6,629.9,702.4,630.8,707.9z"/>
		<path style="fill:#7E888C;" d="M688.2,711.2L688.2,711.2c0.5,5.4-3.5,10.2-8.8,10.7l-15.9,1.5c-5.4,0.5-10.2-3.5-10.7-8.8l0,0
			c-0.5-5.4,3.5-10.2,8.8-10.7l15.9-1.5C682.9,701.8,687.7,705.8,688.2,711.2z"/>
		<path style="fill:#7E888C;" d="M717.9,715.1c4.9,4.9,24.2,6.6,24.2,6.6s-10.5-14.1-13.9-21.3c3.4-7.2,13.9-21.3,13.9-21.3
			s-19.4,1.8-24.2,6.6c-4,4-4.7,9.9-2.2,14.6C713.2,705.2,713.9,711.2,717.9,715.1z"/>
		<path style="fill:#A6AFB2;" d="M572.6,719.7c24.5,0,155.6-7.5,155.6-19.1c0-11.6-134.8-19.1-155.6-19.1c4.6,5.1,7.4,11.8,7.4,19.1
			S577.2,714.6,572.6,719.7z"/>
		<path style="fill:#C5D0D0;" d="M536.3,700.5c0,11.6,24.6,19.1,36.2,19.1c0,0,0,0,0,0c4.6-5.1,7.4-11.8,7.4-19.1
			s-2.8-14.1-7.4-19.1c0,0,0,0,0,0C560.9,681.4,536.3,688.9,536.3,700.5z"/>
		<circle style="fill:#FFFFFF;" cx="558.1" cy="700.5" r="9.5"/>
		<circle cx="558.1" cy="700.5" r="5.3"/>
	</g>
	<g>
		<path style="fill:#7E888C;" d="M655.8,358.4l5.6-24c1.5-6.5-2.5-12.9-9-14.4l-32.1-7.5c-6.5-1.5-12.9,2.5-14.4,9l-4.5,19
			c-1.4,5.8,1.7,11.7,7.2,13.9l30.9,12.6C646.4,369.5,654.1,365.6,655.8,358.4z"/>
		<path style="fill:#7E888C;" d="M717.6,383.3L717.6,383.3c-6-3.8-7.8-11.7-4-17.6l19.5-31.1c3.8-6,11.7-7.8,17.6-4l0,0
			c6,3.8,7.8,11.7,4,17.6l-19.5,31.1C731.5,385.2,723.6,387,717.6,383.3z"/>
		<path style="fill:#7E888C;" d="M646.8,317.6L646.8,317.6c-4.2,5.7-12.3,6.8-17.9,2.6l-29.4-22c-5.7-4.2-6.8-12.3-2.6-17.9l0,0
			c4.2-5.7,12.3-6.8,17.9-2.6l29.4,22C649.8,303.9,651,311.9,646.8,317.6z"/>
		<path style="fill:#7E888C;" d="M753.5,254.1v24.7c0,6.6-5.4,12-12,12h-33c-6.6,0-12-5.4-12-12v-19.5c0-5.9,4.3-11,10.2-11.9
			l33-5.2C746.9,241.1,753.5,246.8,753.5,254.1z"/>
		<path style="fill:#7E888C;" d="M549.4,287.9c-9.8-9.8-48.9-13.4-48.9-13.4s21.3,28.4,28.1,42.9c-6.9,14.4-28.1,42.9-28.1,42.9
			s39.1-3.6,48.9-13.4c8-8,9.5-20,4.4-29.5C558.9,307.9,557.4,295.9,549.4,287.9z"/>
		<path style="fill:#C5D0D0;" d="M889.8,305.4c-14.3-8.5-36.3-19.9-63-28.1c-6.7,11.7-10.6,25.3-10.6,39.8
			c0,14.5,3.8,28.1,10.6,39.8c26.7-8.3,48.7-19.7,63-28.1C898.6,323.5,898.6,310.7,889.8,305.4z"/>
		<circle style="fill:#FFFFFF;" cx="837.7" cy="310.6" r="11.7"/>
		<circle cx="837.7" cy="310.6" r="5.3"/>
		<path style="fill:#A6AFB2;" d="M826.8,277.3c-20.3-6.3-43.4-10.8-67.8-10.8c-64.3,0-145.1,23.3-182.6,33.4
			c-6.8,1.8-25,4.7-32.4,5.9c-1.9,0.3-3.3,1.9-3.3,3.8v14.3c0,2,1.5,3.7,3.5,3.8c7.6,0.6,25.5,2.2,32.2,4
			c37.5,10.1,118.3,35.9,182.6,35.9c24.4,0,47.5-4.5,67.8-10.8c-6.7-11.7-10.6-25.3-10.6-39.8C816.3,302.6,820.1,289,826.8,277.3z"
			/>
		<path style="fill:#7E888C;" d="M763.8,302.5c-13,2.3-26.6,6-36.9,9.2c-7.2,2.2-7.2,9.1,0,11.3c10.3,3.2,23.9,6.9,36.9,9.2
			c5.8,1,11.4-2,11.4-6v-17.7C775.2,304.5,769.5,301.5,763.8,302.5z"/>
	</g>
	<g>
		<path style="fill:#E23F2C;" d="M296,518.6c0,8.5-8.8,14.3-16.5,10.6c-12.9-6.1-21.7-19.3-21.7-34.5c0-15.2,8.9-28.3,21.7-34.5
			c7.6-3.7,16.5,2.2,16.5,10.6V518.6z"/>
		<path style="fill:#E23F2C;" d="M250.8,514.8v21.3c0,2.1-1.7,3.8-3.8,3.8h-30.1c-3.7,0-5.2-4.7-2.2-6.9l30.1-21.3
			C247.4,509.9,250.8,511.7,250.8,514.8z"/>
		<path style="fill:#E23F2C;" d="M193.7,553.5v-22.7c0-6.1-5-11.1-11.1-11.1h-30.4c-6.1,0-11.1,5-11.1,11.1v18
			c0,5.5,4,10.1,9.4,10.9l30.4,4.8C187.7,565.5,193.7,560.3,193.7,553.5z"/>
		<path style="fill:#E23F2C;" d="M127.7,447.5c0-3.9,2-7.5,5.4-9.4c12.8-7.6,27.7-13.3,43.5-13.3c22.4,0,42.9,11.4,58.4,23.6
			c2.6,2.1,4.1,5.2,4.1,8.6v3.4c0,8.7-9.5,13.9-16.8,9.3c-13.3-8.3-28.9-14.6-45.7-14.6c-11.8,0-23,3.1-33.3,7.9
			c-7.3,3.4-15.6-2-15.6-10V447.5z"/>
		<path style="fill:#F49967;" d="M91.6,494.8c0,0,22.2-30.2,53.9-45.2c10.3,12.2,16.5,28,16.5,45.2c0,17.2-6.2,33-16.5,45.2
			C113.9,525,91.6,494.8,91.6,494.8z"/>
		<g>
			<circle style="fill:#FFFFFF;" cx="136.8" cy="490.9" r="10.8"/>
			<circle cx="136.8" cy="490.9" r="4.9"/>
		</g>
		<path style="fill:#ED7D33;" d="M145.5,449.5c10.5-5,22-8.3,34.1-8.3c48.6,0,88.1,53.5,88.1,53.5s-39.4,53.5-88.1,53.5
			c-12.1,0-23.6-3.3-34.1-8.3c10.3-12.2,16.5-28,16.5-45.2C162,477.5,155.8,461.8,145.5,449.5z"/>
		<path style="fill:#E23F2C;" d="M185.6,502.8c4.2,1.6,11.1,3.2,15.6,4.1c1.4,0.3,2.7-0.8,2.7-2.2v-17.8c0-1.4-1.3-2.5-2.7-2.2
			c-4.5,0.9-11.4,2.5-15.6,4.1c-8.9,3.4-8.2,7-8.2,7S176.7,499.4,185.6,502.8z"/>
	</g>
	<g>
		<path style="fill:#7E888C;" d="M368.5,809.8V754c0-8.4,7.2-15,15.6-14.3c31.5,2.8,103.4,12.7,146.2,44.9c3.6,2.7,5.7,7,5.7,11.5
			v13.6c0,7.9-6.4,14.3-14.3,14.3H382.8C374.9,824.2,368.5,817.7,368.5,809.8z"/>
		<path style="fill:#7E888C;" d="M547.3,836.3l19.7,11c3.1,1.7,2.6,6.3-0.8,7.3c-5,1.5-12.1,2-20.3-2.5c-11.6-6.3-6.6-12.6-3.1-15.5
			C544.1,835.7,545.9,835.5,547.3,836.3z"/>
		<path style="fill:#7E888C;" d="M531,850.4v17.2c0,2.9-3,4.8-5.6,3.6c-5.9-2.7-14.6-8.4-17-19.8c-0.7-3.2,1.8-6.2,5.1-6.2h12.3
			C528.7,845.2,531,847.5,531,850.4z"/>
		<path style="fill:#A6AFB2;" d="M171.8,821.6h93.3c1-2.4,2.8-4.5,5.3-5.9c13.7-8.1,34.9-19.1,60.5-27c19.5-6,41.7-10.4,65.2-10.4
			c61.8,0,139.4,22.4,175.4,32.1c6.5,1.8,24,4.6,31.2,5.7c1.8,0.3,3.1,1.8,3.1,3.7v13.7c0,1.9-1.5,3.5-3.4,3.7
			c-7.3,0.6-24.5,2.1-30.9,3.8c-36,9.7-113.6,34.5-175.4,34.5c-23.5,0-45.6-4.3-65.2-10.4c-25.7-7.9-46.8-18.9-60.5-27
			c-2.3-1.4-4-3.3-5-5.4h-93.5c-3,0-5.5-2.5-5.5-5.5C166.3,824.1,168.8,821.6,171.8,821.6z"/>
		<circle style="fill:#FFFFFF;" cx="320.5" cy="820.7" r="11.2"/>
		<circle cx="320.5" cy="820.7" r="5.1"/>
		<path style="fill:#7E888C;" d="M406.8,855.6V890c0,5.7-5.9,9.6-11.1,7.2c-11.7-5.3-29.2-16.8-34-39.5c-1.4-6.4,3.6-12.4,10.2-12.4
			h24.5C402.1,845.2,406.8,849.9,406.8,855.6z"/>
		<path style="fill:#7E888C;" d="M626.3,861.4c0,6.3-6,10.9-12,9.2c-19.2-5.3-33.3-22.8-33.3-43.7s14.1-38.5,33.3-43.7
			c6-1.7,12,2.9,12,9.2V861.4z"/>
	</g>
	<g>
		<path style="fill:#F5C227;" d="M822.7,489.6c-39.9,0-73.1,28.7-80,66.7c-1.4,0.8-2.8,1.5-4.2,2.1c-4.7,2-9.5,0-9.5,0v25.2
			c0,0,4.8-2,9.5,0c1.4,0.6,2.7,1.3,4.2,2.1c6.9,37.9,40.1,66.7,80,66.7c44.9,0,81.3-36.4,81.3-81.3
			C904.1,526,867.6,489.6,822.7,489.6z"/>
		<path style="fill:#D6A528;" d="M729,583.5l-19.5,6.5c-2.9,1-6-1.2-6-4.3v-29.6c0-3.1,3-5.3,6-4.3l19.5,6.5V583.5z"/>
		<g>
			<circle style="fill:#FFFFFF;" cx="859.3" cy="553.1" r="12.1"/>
			<circle cx="859.3" cy="553.1" r="5.2"/>
		</g>
		<path style="fill:#D6A528;" d="M903.9,576.3h-15.3c-2.5,0-4.5-2-4.5-4.5v-1.6c0-2.5,2-4.5,4.5-4.5h15.3c2.5,0,4.5,2,4.5,4.5v1.6
			C908.4,574.2,906.4,576.3,903.9,576.3z"/>
		<path style="fill:#D6A528;" d="M813.3,589.7c-3.6,1.4-8.7,2.7-13.4,3.8c-4.3,1-8.5-2.3-8.5-6.8V576c0-4.5,4.1-7.8,8.5-6.8
			c4.7,1.1,9.8,2.4,13.4,3.8c1.9,0.7,3.6,1.5,5,2.2c4.9,2.6,4.9,9.7,0,12.3C816.9,588.2,815.2,589,813.3,589.7z"/>
		<path style="fill:#F6D36A;" d="M814.9,498.9h7.3c1.1,0,1.9-1.1,1.6-2.1l-3.6-11.9c-0.5-1.6-2.7-1.6-3.2,0l-3.6,11.9
			C813,497.9,813.8,498.9,814.9,498.9z"/>
		<path style="fill:#F6D36A;" d="M804.8,525.4l7.1-1.4c1.1-0.2,1.7-1.4,1.1-2.4l-5.8-11c-0.8-1.4-2.9-1-3.1,0.6l-1.3,12.4
			C802.7,524.7,803.7,525.6,804.8,525.4z"/>
		<path style="fill:#F6D36A;" d="M780.1,512.5l6.7-2.9c1-0.4,1.3-1.7,0.6-2.6l-8.1-9.5c-1.1-1.2-3.1-0.4-2.9,1.3l1.4,12.4
			C777.9,512.2,779,512.9,780.1,512.5z"/>
		<path style="fill:#F6D36A;" d="M786.3,540.8l6-4.1c0.9-0.6,1-2,0.1-2.6l-9.7-7.8c-1.3-1-3.1,0.2-2.6,1.8l3.7,11.9
			C784.2,540.9,785.4,541.4,786.3,540.8z"/>
		<path style="fill:#F6D36A;" d="M761.3,536l4.8-5.4c0.7-0.8,0.5-2.1-0.5-2.6l-11.3-5.2c-1.5-0.7-2.9,1-2.1,2.4l6.5,10.7
			C759.3,536.7,760.6,536.8,761.3,536z"/>
		<path style="fill:#F6D36A;" d="M842.4,511.2l-7.1-1.4c-1.1-0.2-1.7-1.4-1.1-2.4l5.8-11c0.8-1.4,2.9-1,3.1,0.6l1.3,12.4
			C844.4,510.5,843.5,511.4,842.4,511.2z"/>
		<path style="fill:#F6D36A;" d="M865,506.6l-6.1-4c-0.9-0.6-1-1.9-0.1-2.6l9.6-7.9c1.3-1,3.1,0.2,2.6,1.7l-3.6,11.9
			C867.2,506.7,866,507.2,865,506.6z"/>
		<path style="fill:#F6D36A;" d="M854.3,533.2l-6-4.1c-0.9-0.6-1-2-0.1-2.6l9.7-7.8c1.3-1,3.1,0.2,2.6,1.8l-3.7,11.9
			C856.5,533.3,855.2,533.8,854.3,533.2z"/>
		<path style="fill:#F6D36A;" d="M882,524.7l-4.8-5.4c-0.7-0.8-0.5-2.1,0.5-2.6l11.3-5.2c1.5-0.7,2.9,1,2.1,2.4l-6.5,10.7
			C884,525.4,882.7,525.5,882,524.7z"/>
		<path style="fill:#F6D36A;" d="M814.9,644h7.3c1.1,0,1.9,1.1,1.6,2.1l-3.6,11.9c-0.5,1.6-2.7,1.6-3.2,0l-3.6-11.9
			C813,645,813.8,644,814.9,644z"/>
		<path style="fill:#F6D36A;" d="M804.8,617.5l7.1,1.4c1.1,0.2,1.7,1.4,1.1,2.4l-5.8,11c-0.8,1.4-2.9,1-3.1-0.6l-1.3-12.4
			C802.7,618.2,803.7,617.3,804.8,617.5z"/>
		<path style="fill:#F6D36A;" d="M780.1,630.4l6.7,2.9c1,0.4,1.3,1.7,0.6,2.6l-8.1,9.5c-1.1,1.2-3.1,0.4-2.9-1.3l1.4-12.4
			C777.9,630.7,779,630,780.1,630.4z"/>
		<path style="fill:#F6D36A;" d="M786.3,602.1l6,4.1c0.9,0.6,1,2,0.1,2.6l-9.7,7.8c-1.3,1-3.1-0.2-2.6-1.8l3.7-11.9
			C784.2,602,785.4,601.5,786.3,602.1z"/>
		<path style="fill:#F6D36A;" d="M761.3,606.9l4.8,5.4c0.7,0.8,0.5,2.1-0.5,2.6l-11.3,5.2c-1.5,0.7-2.9-1-2.1-2.4l6.5-10.7
			C759.3,606.2,760.6,606.1,761.3,606.9z"/>
		<path style="fill:#F6D36A;" d="M842.4,631.7l-7.1,1.4c-1.1,0.2-1.7,1.4-1.1,2.4l5.8,11c0.8,1.4,2.9,1,3.1-0.6l1.3-12.4
			C844.4,632.4,843.5,631.5,842.4,631.7z"/>
		<path style="fill:#F6D36A;" d="M865,636.3l-6.1,4c-0.9,0.6-1,1.9-0.1,2.6l9.6,7.9c1.3,1,3.1-0.2,2.6-1.7l-3.6-11.9
			C867.2,636.2,866,635.7,865,636.3z"/>
		<path style="fill:#F6D36A;" d="M854.3,609.7l-6,4.1c-0.9,0.6-1,2-0.1,2.6l9.7,7.8c1.3,1,3.1-0.2,2.6-1.8l-3.7-11.9
			C856.5,609.6,855.2,609.1,854.3,609.7z"/>
		<path style="fill:#F6D36A;" d="M882,618.2l-4.8,5.4c-0.7,0.8-0.5,2.1,0.5,2.6l11.3,5.2c1.5,0.7,2.9-1,2.1-2.4l-6.5-10.7
			C884,617.5,882.7,617.4,882,618.2z"/>
		<path style="fill:#F6D36A;" d="M762.9,582.7l1.4,7.1c0.2,1.1-0.7,2.1-1.8,2l-12.4-1.2c-1.6-0.2-2.1-2.3-0.6-3.1l11-5.9
			C761.5,581.1,762.7,581.6,762.9,582.7z"/>
		<path style="fill:#F6D36A;" d="M764.4,564.1l3.1-6.6c0.5-1-0.2-2.2-1.3-2.3l-12.4-1.7c-1.6-0.2-2.5,1.8-1.3,2.9l9.3,8.3
			C762.6,565.4,763.9,565.1,764.4,564.1z"/>
		<path style="fill:#F6D36A;" d="M822.9,543.7l7.1,1.6c1.1,0.2,2.1-0.6,2-1.7l-0.9-12.4c-0.1-1.6-2.3-2.1-3.1-0.7l-6.2,10.8
			C821.2,542.2,821.8,543.4,822.9,543.7z"/>
		<path style="fill:#F6D36A;" d="M804,555.7l6.9-2.4c1-0.4,1.5-1.6,0.8-2.5l-7.3-10.1c-1-1.3-3-0.6-3,1l0.4,12.5
			C801.9,555.3,803,556,804,555.7z"/>
		<path style="fill:#F6D36A;" d="M833.9,594.7l-7.1,1.4c-1.1,0.2-1.7,1.4-1.1,2.4l5.9,11c0.8,1.4,2.9,1,3.1-0.6l1.2-12.4
			C836,595.4,835,594.5,833.9,594.7z"/>
	</g>
	<g>
		<path style="fill:#E23F2C;" d="M565,205.9h-0.5c-2.3,0-4.3-1.9-4.3-4.3v-26.8c0-2.3,1.9-4.3,4.3-4.3h0.5c2.3,0,4.3,1.9,4.3,4.3
			v26.8C569.3,204,567.4,205.9,565,205.9z"/>
		<path style="fill:#E23F2C;" d="M576.6,199.9h-0.5c-2.3,0-4.3-1.9-4.3-4.3v-26.8c0-2.3,1.9-4.3,4.3-4.3h0.5c2.3,0,4.3,1.9,4.3,4.3
			v26.8C580.8,198,578.9,199.9,576.6,199.9z"/>
		<path style="fill:#E23F2C;" d="M454.9,196.3c0,7.4,5.7,13.3,12.5,13c66.7-2.6,118.9-25.6,118.9-53.6s-52.2-51-118.9-53.6
			c-6.8-0.3-12.5,5.6-12.5,13V196.3z"/>
		<path style="fill:#E23F2C;" d="M440.9,167.6l-18.4,6.1c-2.8,0.9-5.6-1.1-5.6-4v-27.9c0-2.9,2.9-5,5.6-4l18.4,6.1V167.6z"/>
		<path style="fill:#ED7D33;" d="M523.3,105.5c-3.2,0-6.3,0.3-9.3,0.9v98.7c3,0.6,6.1,0.9,9.3,0.9c1.2,0,2.3,0,3.5-0.1V105.6
			C525.7,105.5,524.5,105.5,523.3,105.5z"/>
		<path style="fill:#ED7D33;" d="M487.8,117.6v76.2c4.1,2.6,8.4,5,12.8,7v-90.2C496.2,112.6,491.9,115,487.8,117.6z"/>
		<path style="fill:#ED7D33;" d="M440.9,143.8v23.8c0,0,3.5-1.4,7.3-0.5v-22.7C444.4,145.3,440.9,143.8,440.9,143.8z"/>
		<path style="fill:#ED7D33;" d="M461.6,136.9v37.7c4.1,2.9,8.3,6.3,12.8,9.7v-57.1C469.9,130.6,465.7,134,461.6,136.9z"/>
		<path style="fill:#ED7D33;" d="M540.2,107.7v96.1c4.4-1.1,8.7-2.6,12.8-4.4V112C548.9,110.3,544.6,108.8,540.2,107.7z"/>
		<path style="fill:#ED7D33;" d="M604.8,152.8c-5.3-6.4-19.4-22.3-38.4-33.8v73.5c19-11.6,33.1-27.4,38.4-33.8
			C606.2,156.9,606.2,154.5,604.8,152.8z"/>
		<path style="fill:#F49967;" d="M449.9,143.8c-0.6,0.2-1.1,0.4-1.7,0.5v22.7c0.6,0.1,1.1,0.3,1.7,0.5c3.7,1.6,7.6,4,11.7,7v-37.7
			C457.5,139.8,453.7,142.3,449.9,143.8z"/>
		<path style="fill:#F49967;" d="M474.4,127.2v57.1c4.2,3.2,8.7,6.5,13.4,9.5v-76.2C483.1,120.6,478.7,123.9,474.4,127.2z"/>
		<path style="fill:#F49967;" d="M500.6,110.6v90.2c4.3,1.9,8.7,3.3,13.4,4.2v-98.7C509.3,107.3,504.9,108.7,500.6,110.6z"/>
		<path style="fill:#F49967;" d="M526.8,105.6v100.3c4.6-0.2,9-1,13.4-2.1v-96.1C535.8,106.6,531.4,105.8,526.8,105.6z"/>
		<path style="fill:#F49967;" d="M553,112v87.4c4.7-2,9.1-4.4,13.4-7V119C562.1,116.4,557.7,114,553,112z"/>
		<g>
			<ellipse style="fill:#FFFFFF;" cx="579.8" cy="149.8" rx="8" ry="7.9"/>
			<ellipse cx="579.8" cy="149.8" rx="3.7" ry="3.6"/>
		</g>
	</g>
</g>
</svg>
