<?xml version="1.0" encoding="utf-8"?>
<!-- Generator: Adobe Illustrator 18.0.0, SVG Export Plug-In . SVG Version: 6.00 Build 0)  -->
<!DOCTYPE svg PUBLIC "-//W3C//DTD SVG 1.0//EN" "http://www.w3.org/TR/2001/REC-SVG-20010904/DTD/svg10.dtd">
<svg version="1.0" id="Layer_1" xmlns="http://www.w3.org/2000/svg" xmlns:xlink="http://www.w3.org/1999/xlink" x="0px" y="0px"
	 viewBox="0 0 1400 980" enable-background="new 0 0 1400 980" xml:space="preserve">
<g>
	<path fill="#C2E6E9" d="M753.9,792.7c-7.9-8.4-7.8-21.4,0.1-29.7l3.3-3.5c11.5-12.1,12.3-31.5,0.5-43.3
		c-12.1-12.1-31.7-11.8-43.5,0.5l-0.3,0.3c-8.6,9-22.9,8.9-31.5-0.1c-11.6-12.4-31.3-12.8-43.4-0.8c-11.9,11.7-11.2,31.2,0.2,43.4
		l3,3.2c7.9,8.4,7.8,21.4-0.1,29.7l-6.4,6.7c-3.3-8.4-11.5-14.4-21.2-14.4c-12.6,0-22.7,10.2-22.7,22.7c0,10.7,7.5,19.7,17.5,22.1
		c-5,11.4-2.7,25.1,6.8,34.1c5.9,5.6,13.4,8.4,20.9,8.4c8,0,16-3.2,22-9.4l23-24.2c8.6-9,22.9-8.9,31.5,0.1l0.5,0.6
		c6,6.4,14,9.6,22.1,9.6c7.3,0,14.7-2.6,20.5-8c12.4-11.4,12.2-31.8,0.6-44.1L753.9,792.7z"/>
	<circle fill="#C2E6E9" cx="787.2" cy="784.5" r="22.7"/>
</g>
<g>
	<path fill="#C2E6E9" d="M753.9,548.5c-7.9-8.4-7.8-21.4,0.1-29.7l3.3-3.5c11.5-12.1,12.3-31.5,0.5-43.3
		c-12.1-12.1-31.7-11.8-43.5,0.5l-0.3,0.3c-8.6,9-22.9,8.9-31.5-0.1c-11.6-12.4-31.3-12.8-43.4-0.8c-11.9,11.7-11.2,31.2,0.2,43.4
		l3,3.2c7.9,8.4,7.8,21.4-0.1,29.7l-6.4,6.7c-3.3-8.4-11.5-14.4-21.2-14.4c-12.6,0-22.7,10.2-22.7,22.7c0,10.7,7.5,19.7,17.5,22.1
		c-5,11.4-2.7,25.1,6.8,34.1c5.9,5.6,13.4,8.4,20.9,8.4c8,0,16-3.2,22-9.4l23-24.2c8.6-9,22.9-8.9,31.5,0.1l0.5,0.6
		c6,6.4,14,9.6,22.1,9.6c7.3,0,14.7-2.6,20.5-8c12.4-11.4,12.2-31.8,0.6-44.1L753.9,548.5z"/>
	<circle fill="#C2E6E9" cx="787.2" cy="540.3" r="22.7"/>
</g>
<g>
	<path fill="#C2E6E9" d="M753.9,222.1c-7.9-8.4-7.8-21.4,0.1-29.7l3.3-3.5c11.5-12.1,12.3-31.5,0.5-43.3
		c-12.1-12.1-31.7-11.8-43.5,0.5l-0.3,0.3c-8.6,9-22.9,8.9-31.5-0.1c-11.6-12.4-31.3-12.8-43.4-0.8c-11.9,11.7-11.2,31.2,0.2,43.4
		l3,3.2c7.9,8.4,7.8,21.4-0.1,29.7l-6.4,6.7c-3.3-8.4-11.5-14.4-21.2-14.4c-12.6,0-22.7,10.2-22.7,22.7c0,10.7,7.5,19.7,17.5,22.1
		c-5,11.4-2.7,25.1,6.8,34.1c5.9,5.6,13.4,8.4,20.9,8.4c8,0,16-3.2,22-9.4l23-24.2c8.6-9,22.9-8.9,31.5,0.1l0.5,0.6
		c6,6.4,14,9.6,22.1,9.6c7.3,0,14.7-2.6,20.5-8c12.4-11.4,12.2-31.8,0.6-44.1L753.9,222.1z"/>
	<circle fill="#C2E6E9" cx="787.2" cy="214" r="22.7"/>
</g>
<g>
	<path fill="#C2E6E9" d="M1128.6,232.1c-7.9-8.4-7.8-21.4,0.1-29.7l3.3-3.5c11.5-12.1,12.3-31.5,0.5-43.3
		c-12.1-12.1-31.7-11.8-43.5,0.5l-0.3,0.3c-8.6,9-22.9,8.9-31.5-0.1c-11.6-12.4-31.3-12.8-43.4-0.8c-11.9,11.7-11.2,31.2,0.2,43.4
		l3,3.2c7.9,8.4,7.8,21.4-0.1,29.7l-6.4,6.7c-3.3-8.4-11.5-14.4-21.2-14.4c-12.6,0-22.7,10.2-22.7,22.7c0,10.7,7.5,19.7,17.5,22.1
		c-5,11.4-2.7,25.1,6.8,34.1c5.9,5.6,13.4,8.4,20.9,8.4c8,0,16-3.2,22-9.4l23-24.2c8.6-9,22.9-8.9,31.5,0.1l0.5,0.6
		c6,6.4,14,9.6,22.1,9.6c7.3,0,14.7-2.6,20.5-8c12.4-11.4,12.2-31.8,0.6-44.1L1128.6,232.1z"/>
	<circle fill="#C2E6E9" cx="1161.8" cy="224" r="22.7"/>
</g>
<g>
	<path fill="#C2E6E9" d="M1128.6,523.1c-7.9-8.4-7.8-21.4,0.1-29.7l3.3-3.5c11.5-12.1,12.3-31.5,0.5-43.3
		c-12.1-12.1-31.7-11.8-43.5,0.5l-0.3,0.3c-8.6,9-22.9,8.9-31.5-0.1c-11.6-12.4-31.3-12.8-43.4-0.8c-11.9,11.7-11.2,31.2,0.2,43.4
		l3,3.2c7.9,8.4,7.8,21.4-0.1,29.7l-6.4,6.7c-3.3-8.4-11.5-14.4-21.2-14.4c-12.6,0-22.7,10.2-22.7,22.7c0,10.7,7.5,19.7,17.5,22.1
		c-5,11.4-2.7,25.1,6.8,34.1c5.9,5.6,13.4,8.4,20.9,8.4c8,0,16-3.2,22-9.4l23-24.2c8.6-9,22.9-8.9,31.5,0.1l0.5,0.6
		c6,6.4,14,9.6,22.1,9.6c7.3,0,14.7-2.6,20.5-8c12.4-11.4,12.2-31.8,0.6-44.1L1128.6,523.1z"/>
	<circle fill="#C2E6E9" cx="1161.8" cy="515" r="22.7"/>
</g>
<g>
	<path fill="#C2E6E9" d="M398.5,222.1c-7.9-8.4-7.8-21.4,0.1-29.7l3.3-3.5c11.5-12.1,12.3-31.5,0.5-43.3
		c-12.1-12.1-31.7-11.8-43.5,0.5l-0.3,0.3c-8.6,9-22.9,8.9-31.5-0.1c-11.6-12.4-31.3-12.8-43.4-0.8c-11.9,11.7-11.2,31.2,0.2,43.4
		l3,3.2c7.9,8.4,7.8,21.4-0.1,29.7l-6.4,6.7C277.2,220,269,214,259.4,214c-12.6,0-22.7,10.2-22.7,22.7c0,10.7,7.5,19.7,17.5,22.1
		c-5,11.4-2.7,25.1,6.8,34.1c5.9,5.6,13.4,8.4,20.9,8.4c8,0,16-3.2,22-9.4l23-24.2c8.6-9,22.9-8.9,31.5,0.1l0.5,0.6
		c6,6.4,14,9.6,22.1,9.6c7.3,0,14.7-2.6,20.5-8c12.4-11.4,12.2-31.8,0.6-44.1L398.5,222.1z"/>
	<circle fill="#C2E6E9" cx="431.8" cy="214" r="22.7"/>
</g>
<g>
	<path fill="#C2E6E9" d="M395.5,539c-7.9-8.4-7.8-21.4,0.1-29.7l3.3-3.5c11.5-12.1,12.3-31.5,0.5-43.3
		c-12.1-12.1-31.7-11.8-43.5,0.5l-0.3,0.3c-8.6,9-22.9,8.9-31.5-0.1c-11.6-12.4-31.3-12.8-43.4-0.8c-11.9,11.7-11.2,31.2,0.2,43.4
		l3,3.2c7.9,8.4,7.8,21.4-0.1,29.7l-6.4,6.7c-3.3-8.4-11.5-14.4-21.2-14.4c-12.6,0-22.7,10.2-22.7,22.7c0,10.7,7.5,19.7,17.5,22.1
		c-5,11.4-2.7,25.1,6.8,34.1c5.9,5.6,13.4,8.4,20.9,8.4c8,0,16-3.2,22-9.4l23-24.2c8.6-9,22.9-8.9,31.5,0.1l0.5,0.6
		c6,6.4,14,9.6,22.1,9.6c7.3,0,14.7-2.6,20.5-8c12.4-11.4,12.2-31.8,0.6-44.1L395.5,539z"/>
	<circle fill="#C2E6E9" cx="428.8" cy="530.8" r="22.7"/>
</g>
<g>
	<path fill="#F26D6A" d="M1111.2,549.8c1.7-1.4,2.8-3.4,3.5-5.5c3.4-10-0.7-21.8-8.9-28.5c-8.2-6.7-19.8-8.6-30.1-6
		c-4.7,1.2-9.6,3.1-14.1,1.5c0.8-4.4,8.2-3.9,10-7.9c1-2.2-0.2-5-2.3-6.2s-4.7-1.4-7-1c-6.3,1-11.7,4.9-16.8,8.8
		c-5.1,3.9-10.3,8-16.5,9.5c-1.8,0.5-3.8,0.6-5.7,0.4c1.2,1.1,2.5,2.2,3.9,3.1c21.3,14.7,53.4,0.7,53.4,0.7s20.6,3.3,26.6,18.7
		c2.1,5.3,0.1,10.6-3.3,15.3c0.7-0.2,1.3-0.3,2-0.5C1107.8,551.6,1109.7,551,1111.2,549.8z"/>
	<path fill="#F58873" d="M1134,507.9c-26.7-47.5-106.7-47.9-106.7-47.9c-20.6,6.9-21.3,38.8-3.9,54.9c1.9,0.2,3.9,0,5.7-0.4
		c6.2-1.5,11.4-5.6,16.5-9.5c5.1-3.9,10.5-7.8,16.8-8.8c2.4-0.4,5-0.3,7,1s3.3,4.1,2.3,6.2c-1.9,4-9.3,3.5-10,7.9
		c4.5,1.6,9.4-0.3,14.1-1.5c10.3-2.5,21.9-0.7,30.1,6c8.2,6.7,12.3,18.5,8.9,28.5c-0.7,2.1-1.8,4.1-3.5,5.5
		c-1.5,1.2-3.4,1.8-5.2,2.4c-0.7,0.2-1.3,0.3-2,0.5c-6.6,9.1-18.7,16-18.7,16C1104,568.7,1160.7,555.3,1134,507.9z"/>
</g>
<g>
	<path fill="#E05038" d="M312.6,520.1c2.7-0.8,5.2-2.2,7.8-3.4c8.9-4.1,19.6-5.4,28.4-1c2.3,1.2,4.5,2.7,6.8,4
		c3.4,1.9,7.1,3.1,10.9,3.8c3.1,0.5,6.4,0.6,9.3-0.8c2.1-0.9,3.8-2.5,5.4-4.1c1.4-1.3,2.9-2.7,4.3-4c-4.9-7.1-12.4-12.3-21.3-14.2
		c-18.1-3.8-35.7-3.8-52.9-0.3c-8.9,1.8-16.5,7-21.4,14.1c1.9,1.7,4,3.1,6.3,4.2C301.2,520.8,307.2,521.7,312.6,520.1z"/>
	<path fill="#F26847" d="M381.2,518.5c-1.7,1.6-3.4,3.2-5.4,4.1c-2.9,1.3-6.2,1.3-9.3,0.8c-3.8-0.6-7.5-1.9-10.9-3.8
		c-2.3-1.3-4.4-2.8-6.8-4c-8.8-4.4-19.5-3.1-28.4,1c-2.6,1.2-5.1,2.6-7.8,3.4c-5.4,1.6-11.4,0.7-16.5-1.8c-2.3-1.1-4.4-2.6-6.3-4.2
		c-4,5.7-6.3,12.6-6.3,20V563c0,19.2,15.6,34.7,34.7,34.7h38.6c19.2,0,34.7-15.6,34.7-34.7v-28.7c0-7.3-2.3-14.1-6.2-19.8
		C384,515.8,382.6,517.2,381.2,518.5z"/>
</g>
<g>
	<path fill="#98D6D3" d="M663.2,575.6c-1-2.3-3-3.9-5.1-5.4c-11.7-8.3-25.6-13.6-39.9-15.2c-6.7-0.7-13.7-0.7-19.8-3.6
		c-6.1-2.8-11.1-9.7-9-16.1c2.4,2.9,6.9,3.6,10.2,1.8c3.3-1.8,5.1-5.8,4.5-9.5c-0.9-5.7-6.4-9.3-11-12.7
		c-14.1-10.5-24.1-26.2-28-43.3c-1.2,23.7,1.6,109.7,103.1,128.5c-3-4.4-4.8-9.5-4.7-14.8C663.7,582,664.5,578.6,663.2,575.6z"/>
	<path fill="#C4E5D5" d="M822.2,499.9c-154.4,80.8-256.6-34.3-256.6-34.3s-0.3,2.2-0.5,6c3.9,17.1,14,32.8,28,43.3
		c4.6,3.4,10.1,7,11,12.7c0.6,3.7-1.3,7.7-4.5,9.5c-3.3,1.8-7.8,1.1-10.2-1.8c-2.1,6.4,2.9,13.3,9,16.1c6.1,2.8,13.1,2.8,19.8,3.6
		c14.3,1.6,28.2,6.9,39.9,15.2c2,1.4,4.1,3.1,5.1,5.4c1.3,3,0.5,6.4,0.4,9.7c-0.2,5.3,1.6,10.4,4.7,14.8c3.2,0.6,6.4,1.1,9.8,1.6
		C793.1,617,822.2,499.9,822.2,499.9z"/>
</g>
<g>
	<path fill="#F9A66B" d="M1101.7,188.2c-10.7,15.8-16.4,12.5-16.4,12.5s-11.2-4.3-21.6,0.3c-10.4,4.7-7.6-8.7-19.6-15.7
		c-5.7-3.3-11.8-1.5-16.7,1.4V245h89.7v-62C1111.5,181.2,1105.9,181.9,1101.7,188.2z"/>
	<path fill="#FDC172" d="M1077.4,98.6H1067c-21.9,0-39.6,17.7-39.6,39.6v48.4c4.9-2.9,11-4.7,16.7-1.4c12,7,9.3,20.3,19.6,15.7
		c10.4-4.7,21.6-0.3,21.6-0.3s5.8,3.3,16.4-12.5c4.2-6.3,9.9-7,15.4-5.2v-44.7C1117,116.4,1099.3,98.6,1077.4,98.6z"/>
</g>
<g>
	<path fill="#BD627E" d="M1137.9,505.6c-27.6-49.2-107.2-50.1-110.6-50.1c0,0,0,0,0,0c-0.2,0-0.3,0-0.5,0h0l-0.2,0
		c-0.2,0-0.5,0.1-0.7,0.2c-5.1,1.7-9.3,4.7-12.5,8.8c-3.3,4.2-5.6,9.6-6.4,15.8c-2.3,15.9,4.9,32.6,17.8,41.4
		c4.4,3,9.4,5.1,14.9,6.3c2.8,0.6,5.8,1,9,1.1c0.9,0,1.8,0.1,2.7,0.1c13.6,0,25.8-4.3,29.8-5.9c4.1,0.9,17.7,4.7,22,15.6
		c3.1,8-8.7,18.2-16.3,23.5c-1.4,1-2.7,1.8-3.7,2.3c-1.8,1-2.6,3.1-2.1,5.1c0.1,0.2,0.1,0.4,0.2,0.6c0.1,0.1,0.1,0.2,0.1,0.2
		c0.1,0.2,0.2,0.4,0.3,0.6c0.8,1.2,2.2,1.9,3.7,1.9c1.7,0,3.7-0.1,6-0.3c15-1.5,39.8-8.5,49.8-25.6
		C1147.9,535.6,1146.9,521.6,1137.9,505.6z M1133.3,542.7c-6,10.3-19.6,16.2-31.4,19.1c7.2-6.9,13.5-16.3,9.6-26.2
		c-6.9-17.5-29.1-21.3-30.1-21.5c-0.2,0-0.5,0-0.7,0c-0.6,0-1.2,0.1-1.8,0.4c-0.1,0.1-13.2,5.7-27.5,5.7c-8.6,0-15.8-2-21.5-5.9
		c-10-6.9-15.8-20.3-14-32.8c1.2-8.4,5.6-14.5,12.2-17c4.8,0.1,31.4,1.3,57.2,11c3.4,1.3,6.9,2.7,10.2,4.3
		c9.1,4.4,17.6,9.9,24.7,17.1c2.8,2.8,5.3,5.9,7.6,9.3c0.8,1.2,1.6,2.5,2.3,3.8C1137.3,523,1138.4,534,1133.3,542.7z"/>
	<g>
		<path fill="#BD627E" d="M1020.6,464.8c-10,0-27.7-1.9-35.4-14.3c-1.3-2.1-0.7-4.9,1.4-6.2c2.1-1.3,4.9-0.7,6.2,1.4
			c6.5,10.4,26.8,10.6,34,9.7c2.5-0.3,4.7,1.5,5,4c0.3,2.5-1.5,4.7-3.9,5C1027.5,464.5,1024.7,464.8,1020.6,464.8z"/>
	</g>
	<g>
		<path fill="#FDD3B3" d="M1124.8,538.9c-2.9,0-5.4-2.1-5.9-5.1c-5.2-32.4-47-41-47.4-41.1c-3.2-0.6-5.4-3.8-4.7-7s3.8-5.4,7-4.7
			c2.1,0.4,50.5,10.2,56.9,51c0.5,3.3-1.7,6.3-5,6.9C1125.4,538.9,1125.1,538.9,1124.8,538.9z"/>
	</g>
	<g>
		<path fill="#BD627E" d="M1091.3,572.8c-0.2-1.6-0.5-3.1-1-4.4c-0.3-0.7-0.6-1.4-1-2c0,0-0.1-0.1-0.1-0.1c-0.3-0.7-1.1-2.1-2.3-3.8
			c-3.9-5.6-12.1-14.8-24.3-14.8c-3.9,0-7.9,1-11.9,2.9c-2.4,1.1-9.8,4.6-8.9,11.1c0.5,3.8,4,6.7,8.6,9c-0.3,0.3-0.6,0.6-0.9,0.9
			c-1.5,1.8-3.2,4.9-2.4,9.8c0.9,5.9,4.9,9.4,10.6,9.4c1,0,2-0.1,3-0.3c-1.7,4-2.6,8.2-1.2,11.7c0.7,1.9,2.8,5.2,8.4,6
			c0.7,0.1,1.3,0.1,2,0.1c0,0,0,0,0,0c6.4,0,12.3-4.5,16.5-12.7C1089.9,588.6,1092.1,579.7,1091.3,572.8z M1078.4,591.2
			c-2.6,4.9-5.8,7.9-8.6,7.9c-0.2,0-0.5,0-0.7,0c-1-0.1-1.3-0.4-1.3-0.4c-0.8-1.7,2.4-8.9,7.6-15.3c1.4-1.7,1.3-4.2-0.2-5.9
			c-1.5-1.6-4-1.9-5.8-0.7c-2.8,1.9-8.4,4.8-11.8,4.8c-1,0-1.5,0-1.8-1.8c-0.3-1.8,0.2-2.3,0.3-2.5c0.7-0.8,2.9-1.7,7-1.7
			c2.6,0,4.8,0.4,4.8,0.4c2.4,0.4,4.8-1.2,5.2-3.6c0.4-2.4-1.2-4.8-3.6-5.2c-8-1.5-16.3-4.4-18.7-6.5c0.5-0.5,1.6-1.2,3.4-2
			c2.8-1.3,5.5-2,8.1-2c11,0,17.9,12.3,18.7,13.9c0.1,0.1,0.1,0.2,0.1,0.2c0.1,0.2,0.2,0.4,0.3,0.6
			C1083.3,573.6,1082.7,583,1078.4,591.2z"/>
		<path fill="#F26D6A" d="M1078.4,591.2c-2.6,4.9-5.8,7.9-8.6,7.9c-0.2,0-0.5,0-0.7,0c-1-0.1-1.3-0.4-1.3-0.4
			c-0.8-1.7,2.4-8.9,7.6-15.3c1.4-1.7,1.3-4.2-0.2-5.9c-1.5-1.6-4-1.9-5.8-0.7c-2.8,1.9-8.4,4.8-11.8,4.8c-1,0-1.5,0-1.8-1.8
			c-0.3-1.8,0.2-2.3,0.3-2.5c0.7-0.8,2.9-1.7,7-1.7c2.6,0,4.8,0.4,4.8,0.4c2.4,0.4,4.8-1.2,5.2-3.6c0.4-2.4-1.2-4.8-3.6-5.2
			c-8-1.5-16.3-4.4-18.7-6.5c0.5-0.5,1.6-1.2,3.4-2c2.8-1.3,5.5-2,8.1-2c11,0,17.9,12.3,18.7,13.9c0.1,0.1,0.1,0.2,0.1,0.2
			c0.1,0.2,0.2,0.4,0.3,0.6C1083.3,573.6,1082.7,583,1078.4,591.2z"/>
	</g>
	<g>
		<path fill="#BD627E" d="M1044,483.5h-5.3c-2.5,0-4.5-2-4.5-4.5s2-4.5,4.5-4.5h5.3c2.5,0,4.5,2,4.5,4.5S1046.5,483.5,1044,483.5z"
			/>
	</g>
	<g>
		<path fill="#BD627E" d="M1048.7,529.1c-0.3,3.3-1.3,7.5-4.3,11c-3.1,3.5-7.5,5.5-13.1,5.9c-0.7,0.1-1.4,0.1-2.2,0.1
			c-0.6,0-1.3,0-2-0.1c-2.4-0.1-4.3-2.1-4.3-4.5v0c0-0.1,0-0.2,0-0.3c0.1-2.5,2.3-4.4,4.7-4.2c1.3,0.1,2.5,0.1,3.6-0.1
			c2.8-0.3,5-1.2,6.3-2.8c1.6-1.8,2.1-4.3,2.2-6.2c0.1-1.7-0.1-3-0.1-3c-0.1-0.6-0.1-1.1,0-1.6c0.3-1.8,1.7-3.2,3.6-3.6
			c2.4-0.4,4.8,1.1,5.2,3.6c0,0.2,0.1,0.6,0.2,1.3C1048.7,525.7,1048.8,527.3,1048.7,529.1z"/>
	</g>
	<g>
		<path fill="#BD627E" d="M1088.9,506.3c-0.9,0-1.8-0.3-2.5-0.8c-2-1.4-2.6-4.2-1.2-6.3c4.4-6.4,1-21.1-0.6-25.8
			c-0.8-2.4,0.5-4.9,2.8-5.7c2.4-0.8,4.9,0.5,5.7,2.8c0.8,2.3,7.2,22.4-0.6,33.7C1091.8,505.6,1090.4,506.3,1088.9,506.3z"/>
	</g>
	<g>
		<path fill="#BD627E" d="M1113.2,522.8c-2,0-3.8-1.3-4.3-3.3c-0.7-2.4,0.7-4.9,3.1-5.6c6.5-1.9,8.2-14.5,8.3-18.8
			c0-2.5,2-4.4,4.5-4.4c0,0,0,0,0.1,0c2.5,0,4.5,2.1,4.4,4.6c0,2.4-0.7,23.2-14.8,27.3C1114.1,522.7,1113.7,522.8,1113.2,522.8z"/>
	</g>
	<g>
		<path fill="#BD627E" d="M1031.2,537c-2-7.3-8.7-12.6-16.5-12.6c-8.6,0-25.2,6.7-25.2,17.2c0,10.5,16.5,17.2,25.2,17.2
			c7.9,0,14.6-5.4,16.6-12.7c0.4-1.4,0.6-2.9,0.6-4.5C1031.8,540,1031.6,538.5,1031.2,537z M1014.7,549.7c-6.5,0-16.2-5.4-16.2-8.2
			s9.7-8.2,16.2-8.2c4.5,0,8.2,3.7,8.2,8.2v0C1022.8,546.1,1019.2,549.7,1014.7,549.7z"/>
		<path fill="#F26D6A" d="M1022.8,541.6L1022.8,541.6c0,4.5-3.7,8.2-8.2,8.2c-6.5,0-16.2-5.4-16.2-8.2s9.7-8.2,16.2-8.2
			C1019.2,533.4,1022.8,537.1,1022.8,541.6z"/>
	</g>
</g>
<g>
	<path fill="#57829A" d="M767.2,526c-1.8,0-3.5-1.1-4.2-2.9c-0.1-0.2-0.1-0.3-0.2-0.5c-41.4,10-77.6,6.4-107.3-2.6
		c-1,1.1-1.7,1.7-1.8,1.8c-1,1-2.4,1.3-3.7,1.1c18.4,6,39.7,10.2,63.5,10.2c18,0,36.2-2.4,54.5-7.2C767.7,526,767.4,526,767.2,526z
		 M825,496.3c-1.4-1.1-3.3-1.3-4.9-0.5c-0.4,0.2-0.8,0.4-1.2,0.6c-16.5,8.5-33.1,15.1-49.5,19.7c-3.2,0.9-6.5,1.7-9.7,2.5
		c-15.6,3.6-31.1,5.4-46.4,5.4c-20.1,0-38.3-3.1-54.5-7.9c-3.2-0.9-6.4-2-9.5-3c-16.8-5.8-30.8-13.1-41.7-19.8
		c-24.7-15.2-38.6-30.7-38.8-30.8c-1.2-1.3-3-1.8-4.7-1.3c-1.7,0.5-2.9,1.9-3.1,3.7c-0.3,2.1-6.7,52.4,24.4,93.3
		c20,26.3,50.9,42.4,91.8,47.9c7.1,1,14.1,1.4,20.9,1.4c41.7,0,77.1-18.5,102.5-53.5c14.6-20.2,21.9-40.1,24.6-48.8
		c0.8-2.6,1.2-4.1,1.3-4.4C827,499.2,826.4,497.4,825,496.3z M698.3,598.5c-6.4,0-13-0.5-19.7-1.3c-51.4-6.9-85.3-30.9-100.7-71.3
		c-7.5-19.8-8.6-39-8.4-50.1c6.7,6.2,17.9,15.6,33.2,25.1c9.1,5.6,20.2,11.6,33.3,16.9c3.3,1.3,6.7,2.6,10.3,3.8
		c0.7,0.3,1.5,0.5,2.3,0.8c0.4,0.1,0.9,0.3,1.3,0.4c18.4,6,39.7,10.2,63.5,10.2c18,0,36.2-2.4,54.5-7.2c0.3-0.1,0.6-0.2,0.9-0.2
		c0,0,0,0,0,0c15.3-4,30.6-9.7,45.9-17c-3.5,9.7-10.3,25.1-21.4,40.4C769.4,581.9,737.5,598.5,698.3,598.5z"/>
	<g>
		<path fill="#57829A" d="M621.1,566.7c-1.5,0-3-0.8-3.9-2.2c-1.3-2.1-0.6-4.9,1.5-6.2c28.8-17.5,17.2-40.9,16.7-41.9
			c-1.1-2.2-0.3-4.9,1.9-6.1c2.2-1.1,4.9-0.3,6.1,1.9c0.2,0.3,15.9,32-20,53.7C622.7,566.5,621.9,566.7,621.1,566.7z"/>
	</g>
	<g>
		<path fill="#57829A" d="M620.3,528.6c-1,0-1.9-0.3-2.8-1l-10.4-8.1c-2-1.5-2.3-4.4-0.8-6.3c1.5-2,4.4-2.3,6.3-0.8l10.4,8.1
			c2,1.5,2.3,4.4,0.8,6.3C623,528,621.7,528.6,620.3,528.6z"/>
	</g>
	<g>
		<path fill="#85CA9C" d="M759.8,518.7c-15.6,3.6-31.1,5.4-46.4,5.4c-20.1,0-38.3-3.1-54.5-7.9c5.7-6.6,14.6-18.6,19.4-34.3
			C706.7,490.8,747.6,506.6,759.8,518.7z"/>
		<path fill="#57829A" d="M768.8,525.7C768.8,525.7,768.8,525.7,768.8,525.7c-0.3,0.1-0.6,0.2-0.9,0.2c-0.2,0-0.5,0.1-0.7,0.1
			c-1.8,0-3.5-1.1-4.2-2.9c-0.1-0.2-0.1-0.3-0.2-0.5c-0.6-1.3-1.6-2.6-3-3.9c-12.2-12.1-53.1-27.9-81.5-36.8
			c-4.8,15.7-13.7,27.8-19.4,34.3c-1.4,1.6-2.5,2.8-3.4,3.7c-1,1.1-1.7,1.7-1.8,1.8c-1,1-2.4,1.3-3.7,1.1c-0.5-0.1-0.9-0.2-1.3-0.4
			c-0.5-0.2-0.9-0.6-1.3-1c-1.1-1.3-1.4-3-0.9-4.5c0.2-0.7,0.6-1.3,1.2-1.9c0,0,0.7-0.7,1.9-1.9c1.8-1.8,4.6-5,7.7-9.3
			c5.1-7,10.8-16.9,13.7-28.8c0.3-1.2,1.1-2.2,2.1-2.9c1.1-0.6,2.4-0.8,3.5-0.4c0.2,0.1,21.6,6.5,43.5,15.3
			c35.1,14.1,45.8,23.6,49.5,29c1.1,1.6,1.6,2.9,1.9,3.7c0,0.1,0.1,0.3,0.1,0.4C772.1,522.5,771,524.9,768.8,525.7z"/>
	</g>
	<g>
		<path fill="#57829A" d="M696.1,560.6c-2.2-2.6-5.7-2.6-6.9-2.6c-11.2,0-38.2,11.7-41.2,13c-1.5,0.7-2.5,2-2.7,3.7
			c-0.2,1.6,0.5,3.2,1.9,4.1c12.6,9,22.5,13.5,30.5,13.5c15.7,0,18.2-16.1,19.4-23.8c0.1-0.9,0.3-1.7,0.4-2.4
			C697.8,564,697.3,562.1,696.1,560.6z M688.2,567c-1.6,10.5-3.8,16.2-10.5,16.2c-3.3,0-9-1.4-18.4-7.2
			C668.6,572.3,681.7,567.5,688.2,567C688.2,567,688.2,567,688.2,567z"/>
		<path fill="#85CA9C" d="M688.2,567C688.2,567,688.2,567,688.2,567c-1.6,10.5-3.8,16.2-10.5,16.2c-3.3,0-9-1.4-18.4-7.2
			C668.6,572.3,681.7,567.5,688.2,567z"/>
	</g>
	<g>
		<path fill="#57829A" d="M854.1,457.6c-6.8-10-15.9-13.5-16.3-13.6c-1.5-0.6-3.2-0.3-4.4,0.7c-1.2,1-1.8,2.6-1.6,4.2
			c2.6,17.1-9.9,42-12.9,47.6c-0.4,0.7-0.6,1.1-0.6,1.2c-0.7,1.2-0.8,2.7-0.2,4c0,0.1,0.1,0.2,0.2,0.3c0.5,1.1,1.5,1.9,2.8,2.3
			c0,0,0.1,0,0.1,0l4.3,1.1l26,6.9c0.4,0.1,0.8,0.2,1.2,0.2c1.9,0,3.6-1.2,4.3-3.1C865.6,482.8,860.2,466.6,854.1,457.6z
			 M849.5,502.4l-20.7-5.5c4.1-8.3,11.5-25.2,12.3-40.6C848.1,462.3,857.3,475.5,849.5,502.4z"/>
		<path fill="#85CA9C" d="M849.5,502.4l-20.7-5.5c4.1-8.3,11.5-25.2,12.3-40.6C848.1,462.3,857.3,475.5,849.5,502.4z"/>
	</g>
	<g>
		<path fill="#E7F6FD" d="M724.1,578c-2,0-4.1-0.1-6.1-0.4c-3.3-0.4-5.6-3.4-5.2-6.7c0.4-3.3,3.4-5.6,6.7-5.2
			c26,3.3,50-22.2,50.2-22.5c2.3-2.4,6.1-2.6,8.5-0.3s2.6,6.1,0.3,8.5C777.3,552.6,753.4,578,724.1,578z"/>
	</g>
</g>
<g>
	<g>
		<path fill="#FFFFFF" d="M626.9,223c0,2.5-2,4.5-4.5,4.5h-4.5c-2.5,0-4.5-2-4.5-4.5s2-4.5,4.5-4.5h4.5
			C624.9,218.5,626.9,220.5,626.9,223z"/>
		<path fill="#FFFFFF" d="M665,217.7c5.1,15.8,6.3,40.8-16.3,70.2c-0.9,1.2-2.2,1.8-3.6,1.8c-1,0-1.9-0.3-2.7-0.9
			c-2-1.5-2.3-4.3-0.8-6.3c16.3-21.1,21.3-42,14.9-62c-4.8-14.9-14.2-23.6-14.3-23.7c-1.8-1.7-2-4.5-0.3-6.3c1.7-1.8,4.5-2,6.4-0.3
			C648.7,190.5,659.5,200.6,665,217.7z"/>
		<path fill="#FFFFFF" d="M725.1,258c-0.4-3.8-2.2-7-5.2-9.2c-1.8-1.4-4-2.1-6.5-2.1c-7.8,0-19.1,7.8-33.5,23.2
			c-2.8,2.9-3.8,7-2.8,10.9c1,3.9,3.9,7,7.7,8.3c11.8,3.9,20,5.8,24.5,5.8c2.5,0,4.3-0.6,5.7-1.8c1.8-1.7,2.8-3.8,2.9-6.2
			c0-2.2-0.8-4.3-1.8-5.8C719.7,276.3,726,266.5,725.1,258z M706.9,278.3c-1.5,1.8-1.4,4.6,0.3,6.2c0.4,0.4,0.8,0.9,1.2,1.4
			c-3.8-0.3-11.3-2.2-20.8-5.4c-1.3-0.4-1.7-1.5-1.8-1.9c-0.1-0.4-0.3-1.6,0.7-2.6c14.1-15,23.2-20.3,27-20.3c0.7,0,0.9,0.2,1,0.3
			c1,0.8,1.5,1.7,1.7,3C716.7,264.5,710.8,273.8,706.9,278.3z"/>
		<path fill="#FFFFFF" d="M742.2,214.2c-1.2,1.4-2.9,2.1-4.5,2.1c-1.4,0-2.8-0.5-3.9-1.5c-0.3-0.3-27-22.9-52.3-16.9
			c-3.2,0.8-6.5-1.2-7.2-4.5c-0.8-3.2,1.2-6.5,4.5-7.2c31.4-7.4,61.7,18.4,63,19.5C744.1,207.9,744.4,211.7,742.2,214.2z"/>
		<path fill="#FFFFFF" d="M783.7,228.3c-5.8-20.7-27-36.6-51.1-46.6c-2.9-1.2-5.8-2.3-8.7-3.3c-17.2-6-35-9.2-49.2-9.2
			c-7.8,0-16.2,1-24.6,2.8c-3.9,0.8-7.8,1.9-11.6,3.1c-31.5,10-60.7,32.3-60.7,64.4c0,44.6,56.6,70.3,97,70.3
			c36.9,0,98.8-21.5,109-59.3c1-3.5,1.5-7.2,1.5-11C785.2,235.6,784.7,231.9,783.7,228.3z M674.7,305.3c-20.3,0-43.7-6.8-61.2-17.8
			c-14.3-8.9-31.2-24.5-31.2-48.1c0-23.6,17-39.2,31.2-48.1c17.5-11,41-17.8,61.2-17.8c35.9,0,105.8,23.2,106,65.6v0.3
			C780.6,282.1,710.7,305.3,674.7,305.3z"/>
		<path fill="#4A69B2" d="M786.2,221.6c-8.2-20.1-29.7-35-53.3-44.5c-3-1.2-6-2.3-9-3.3c-17.5-6-35.4-9-49.2-9
			c-5.2,0-10.6,0.4-16.2,1.2c0,0,0,0,0,0c-6.1,0.9-12.3,2.3-18.6,4.1h0c-33.9,10-66.7,33.9-66.7,69.5c0,48.2,60,74.8,101.5,74.8
			c35,0,96.5-19.6,111.6-57.2c2.2-5.5,3.4-11.4,3.4-17.6C789.7,233.1,788.5,227.1,786.2,221.6z M674.7,305.3
			c-20.3,0-43.7-6.8-61.2-17.8c-14.3-8.9-31.2-24.5-31.2-48.1c0-23.6,17-39.2,31.2-48.1c17.5-11,41-17.8,61.2-17.8
			c35.9,0,105.8,23.2,106,65.6v0.3C780.6,282.1,710.7,305.3,674.7,305.3z"/>
	</g>
	<g>
		<path fill="#4A69B2" d="M822.7,239.4c13.4-7.7,22.4-21.1,26.2-39.3c3.5-16.4,1.5-30.9,1.4-31.5c-0.2-1.3-0.9-2.4-1.9-3.1
			c-1.1-0.7-2.4-0.9-3.6-0.6c-21.3,5.3-39.1,19.8-51.6,41.9c-3,5.3-5.3,10.3-7.1,14.8c-1,2.4-1.8,4.7-2.5,6.8c-2,6-2.8,10-2.9,10.3
			c0,0.2-0.1,0.5-0.1,0.7v0.3c0,0.3,0,0.5,0.1,0.8c0.1,0.3,0.9,4.2,2.9,10.1c0.7,2,1.5,4.3,2.5,6.6c1.8,4.3,4.1,9.1,7,14.1
			c12.5,21.3,30.3,35.3,51.6,40.5c0.4,0.1,0.7,0.1,1.1,0.1c0.9,0,1.8-0.3,2.5-0.8c1-0.7,1.8-1.8,1.9-3.1c0.1-0.6,2-14.6-1.5-30.5
			C845,259.8,836.1,246.9,822.7,239.4z M841.8,301.5c-38.3-12.6-50.3-55.3-52-62c1.6-6.9,13.6-51.3,52-64.4
			c0.2,5.3,0.2,14.1-1.8,23.4c-4.1,19.2-14.2,31.6-30,36.7c-1.9,0.6-3.1,2.3-3.1,4.3c0,2,1.3,3.7,3.1,4.3
			c15.8,5,25.8,16.9,29.9,35.3C842,288,842.1,296.4,841.8,301.5z"/>
		<path fill="#2FBEBE" d="M840,279.1c2,8.9,2,17.2,1.8,22.4c-38.3-12.6-50.3-55.3-52-62c1.6-6.9,13.6-51.3,52-64.4
			c0.2,5.3,0.2,14.1-1.8,23.4c-4.1,19.2-14.2,31.6-30,36.7c-1.9,0.6-3.1,2.3-3.1,4.3c0,2,1.3,3.7,3.1,4.3
			C825.9,248.8,836,260.7,840,279.1z"/>
	</g>
	<g>
		<path fill="none" stroke="#F16267" stroke-width="9" stroke-linecap="round" stroke-linejoin="round" stroke-miterlimit="10" d="
			M642.8,173.8"/>
	</g>
	<g>
		<path fill="#4A69B2" d="M648.7,287.9c-0.9,1.2-2.2,1.8-3.6,1.8c-1,0-1.9-0.3-2.7-0.9c-2-1.5-2.3-4.3-0.8-6.3
			c16.3-21.1,21.3-42,14.9-62c-4.8-14.9-14.2-23.6-14.3-23.7c-1.8-1.7-2-4.5-0.3-6.3c1.7-1.8,4.5-2,6.4-0.3
			c0.5,0.4,11.3,10.5,16.8,27.6C670.1,233.5,671.4,258.5,648.7,287.9z"/>
	</g>
	<g>
		<path fill="#4A69B2" d="M626.9,223c0,2.5-2,4.5-4.5,4.5h-4.5c-2.5,0-4.5-2-4.5-4.5s2-4.5,4.5-4.5h4.5
			C624.9,218.5,626.9,220.5,626.9,223z"/>
	</g>
	<g>
		<path fill="#4A69B2" d="M725.1,258c-0.4-3.8-2.2-7-5.2-9.2c-1.8-1.4-4-2.1-6.5-2.1c-7.8,0-19.1,7.8-33.5,23.2
			c-2.8,2.9-3.8,7-2.8,10.9c1,3.9,3.9,7,7.7,8.3c11.8,3.9,20,5.8,24.5,5.8c2.5,0,4.3-0.6,5.7-1.8c1.8-1.7,2.8-3.8,2.9-6.2
			c0-2.2-0.8-4.3-1.8-5.8C719.7,276.3,726,266.5,725.1,258z M706.9,278.3c-1.5,1.8-1.4,4.6,0.3,6.2c0.4,0.4,0.8,0.9,1.2,1.4
			c-3.8-0.3-11.3-2.2-20.8-5.4c-1.3-0.4-1.7-1.5-1.8-1.9c-0.1-0.4-0.3-1.6,0.7-2.6c14.1-15,23.2-20.3,27-20.3c0.7,0,0.9,0.2,1,0.3
			c1,0.8,1.5,1.7,1.7,3C716.7,264.5,710.8,273.8,706.9,278.3z"/>
		<path fill="#2FBEBE" d="M707.2,284.5c0.4,0.4,0.8,0.9,1.2,1.4c-3.8-0.3-11.3-2.2-20.8-5.4c-1.3-0.4-1.7-1.5-1.8-1.9
			c-0.1-0.4-0.3-1.6,0.7-2.6c14.1-15,23.2-20.3,27-20.3c0.7,0,0.9,0.2,1,0.3c1,0.8,1.5,1.7,1.7,3c0.6,5.5-5.4,14.8-9.3,19.3
			C705.3,280.2,705.5,282.9,707.2,284.5z"/>
	</g>
	<g>
		<path fill="#2FBEBE" d="M723.9,156.3v17.4c-17.5-6-35.4-9-49.2-9c-5.2,0-10.6,0.4-16.2,1.2C669.3,159.8,689.2,153.7,723.9,156.3z"
			/>
		<path fill="#4A69B2" d="M732.9,152.1v27.9c0,0.6-0.1,1.1-0.3,1.7c-0.7,1.7-2.3,2.8-4.2,2.8c-2.5,0-4.5-2-4.5-4.5v-23.8
			c-34.7-2.6-54.5,3.6-65.4,9.7c0,0,0,0,0,0c-3.8,2.2-6.5,4.3-8.4,6.1c-2.4,2.3-3.3,3.9-3.3,4c-1.2,2.2-3.9,3-6.1,1.8
			c-1.1-0.6-1.8-1.6-2.2-2.7c-0.3-1.1-0.3-2.3,0.3-3.4c0.1-0.2,0.4-0.8,1.1-1.7h0c4.7-6.4,25.5-28.2,88.9-22.4
			C731.1,147.9,732.9,149.8,732.9,152.1z"/>
	</g>
	<g>
		<path fill="#D6EEEA" d="M742.2,214.2c-1.2,1.4-2.9,2.1-4.5,2.1c-1.4,0-2.8-0.5-3.9-1.5c-0.3-0.3-27-22.9-52.3-16.9
			c-3.2,0.8-6.5-1.2-7.2-4.5c-0.8-3.2,1.2-6.5,4.5-7.2c31.4-7.4,61.7,18.4,63,19.5C744.1,207.9,744.4,211.7,742.2,214.2z"/>
	</g>
</g>
<g>
	<g>
		<path fill="#FFFFFF" d="M325,219c0,2.5-2,4.5-4.5,4.5h-7c-2.5,0-4.5-2-4.5-4.5s2-4.5,4.5-4.5h7C323,214.5,325,216.5,325,219z"/>
		<path fill="#FFFFFF" d="M364.5,219c0,2.5-2,4.5-4.5,4.5h-7c-2.5,0-4.5-2-4.5-4.5s2-4.5,4.5-4.5h7
			C362.5,214.5,364.5,216.5,364.5,219z"/>
		<path fill="#FFFFFF" d="M384.4,206.1L380,195c0,0-0.1,0-0.2,0.1c0.8-0.4,9.3-5.9,5.9-28.5c-3.8-25.7-36.2-40.2-36.5-40.3
			c-3-1.3-4.4-4.9-3.1-7.9c1.3-3,4.9-4.4,7.9-3.1c1.6,0.7,38.8,17.3,43.6,49.6C402.5,197.8,386.3,205.4,384.4,206.1z"/>
		<path fill="#FFFFFF" d="M414.5,175.6c0-43.1-35.5-77.9-78.8-76.9c-41,1-74.4,34.7-75,75.7c-0.3,20.6,7.5,39.3,20.3,53.3
			c6.8,7.4,10.3,17.4,9.1,27.4c0,0.5-0.1,1-0.2,1.5c-0.2,1-0.2,2-0.2,3c0,1.5,0.2,3,0.5,4.5c0.3,1.2,0.7,2.3,1.2,3.4
			c0.9,1.9,2.1,3.6,3.6,5.1c0.6,0.6,1.3,1.2,2.1,1.8c1.8,1.4,3.9,2.4,6.2,3c1.5,0.4,3.1,0.6,4.7,0.6h59c1.9,0,3.8-0.3,5.5-0.8
			c2.2-0.7,4.2-1.8,6-3.2c2.3-1.8,4.1-4.2,5.3-6.8c0.5-1,0.8-2.1,1.1-3.3c0.3-1.4,0.5-2.8,0.5-4.3c0-0.8-0.1-1.6-0.2-2.4
			c-0.1-0.6-0.2-1.3-0.2-1.9c-0.8-10,2.2-20.1,9-27.5C406.8,214,414.5,195.7,414.5,175.6z M380.8,257.7c0.1,0.6,0.1,1.2,0.1,1.8
			c0,7.7-6.2,13.9-13.9,13.9h-59c-7.7,0-13.9-6.2-13.9-13.9c0-0.8,0.1-1.5,0.2-2.2c1.9-11.8-1.8-23.7-10.1-32.7
			c-12.6-13.7-19.4-31.5-19.1-50.1c0.6-38.4,32.3-70.4,70.6-71.3c0.6,0,1.2,0,1.8,0c39.9,0,72.4,32.5,72.4,72.4
			c0,18.2-6.8,35.6-19.1,49C382.9,233.3,379.2,245.3,380.8,257.7z"/>
		<path fill="#BF4D52" d="M419,175.6c0-45.6-37.6-82.5-83.4-81.4c-21,0.5-40.8,9.1-55.8,24.2c-14.9,15.1-23.3,35-23.7,56
			c-0.3,21,7.3,41,21.5,56.4c6.2,6.8,9.1,15.6,7.9,24.3c0,0.3-0.1,0.5-0.1,0.8c-0.2,1.2-0.3,2.4-0.3,3.7c0,1.5,0.1,3,0.4,4.5
			c0.4,1.9,1,3.8,1.9,5.5c1.4,2.8,3.3,5.2,5.6,7.2c2.4,2.1,5.2,3.7,8.2,4.6c2.2,0.7,4.5,1,6.8,1h59c2.7,0,5.2-0.5,7.6-1.3
			c2.9-1,5.5-2.6,7.8-4.7c2.3-2,4.1-4.5,5.4-7.3c0.8-1.6,1.3-3.3,1.7-5.1c0.3-1.5,0.4-3,0.4-4.5c0-1-0.1-2-0.2-3
			c-0.1-0.5-0.1-1-0.2-1.5c-0.8-9.2,2-18,7.8-24.3C411.3,215.6,419,196.1,419,175.6z M380.8,257.7c0.1,0.6,0.1,1.2,0.1,1.8
			c0,7.7-6.2,13.9-13.9,13.9h-59c-7.7,0-13.9-6.2-13.9-13.9c0-0.8,0.1-1.5,0.2-2.2c1.9-11.8-1.8-23.7-10.1-32.7
			c-12.6-13.7-19.4-31.5-19.1-50.1c0.6-38.4,32.3-70.4,70.6-71.3c0.6,0,1.2,0,1.8,0c39.9,0,72.4,32.5,72.4,72.4
			c0,18.2-6.8,35.6-19.1,49C382.9,233.3,379.2,245.3,380.8,257.7z"/>
		<path fill="#E64E63" d="M359,259c-7-3-9-13-18-15c-15-3-18,13-29,17c-8.7,4-11.8-4.7-17.2-10.4c0,2.2-0.1,4.4-0.5,6.7
			c-0.1,0.7-0.2,1.5-0.2,2.2c0,7.7,6.2,13.9,13.9,13.9h59c7.7,0,13.9-6.2,13.9-13.9c0-0.6,0-1.2-0.1-1.8c-0.3-2.5-0.4-5-0.3-7.4
			c-4.4,1.8-8.3,6.1-12.5,9.8C365,261,362,260,359,259z"/>
		<path fill="#F16267" d="M410,175.6c0-39.9-32.5-72.4-72.4-72.4c-0.6,0-1.2,0-1.8,0c-38.4,0.9-70.1,32.9-70.6,71.3
			c-0.3,18.6,6.5,36.4,19.1,50.1c6.7,7.3,10.4,16.5,10.5,26c5.4,5.7,8.5,14.4,17.2,10.4c11-4,14-20,29-17c9,2,11,12,18,15
			c3,1,6,2,9,1c4.2-3.6,8.1-8,12.5-9.8c0.4-9.7,4-18.7,10.3-25.6C403.2,211.2,410,193.8,410,175.6z M320.5,223.5h-7
			c-2.5,0-4.5-2-4.5-4.5s2-4.5,4.5-4.5h7c2.5,0,4.5,2,4.5,4.5S323,223.5,320.5,223.5z M360,223.5h-7c-2.5,0-4.5-2-4.5-4.5
			s2-4.5,4.5-4.5h7c2.5,0,4.5,2,4.5,4.5S362.5,223.5,360,223.5z M384.4,206.1L380,195c0,0-0.1,0-0.2,0.1c0.8-0.4,9.3-5.9,5.9-28.5
			c-3.8-25.7-36.2-40.2-36.5-40.3c-3-1.3-4.4-4.9-3.1-7.9c1.3-3,4.9-4.4,7.9-3.1c1.6,0.7,38.8,17.3,43.6,49.6
			C402.5,197.8,386.3,205.4,384.4,206.1z"/>
	</g>
	<g>
		<path fill="#BF4D52" d="M325,219c0,2.5-2,4.5-4.5,4.5h-7c-2.5,0-4.5-2-4.5-4.5s2-4.5,4.5-4.5h7C323,214.5,325,216.5,325,219z"/>
	</g>
	<g>
		<path fill="#BF4D52" d="M364.5,219c0,2.5-2,4.5-4.5,4.5h-7c-2.5,0-4.5-2-4.5-4.5s2-4.5,4.5-4.5h7
			C362.5,214.5,364.5,216.5,364.5,219z"/>
	</g>
	<g>
		<path fill="#BF4D52" d="M289.6,264h-14.5c-10.5,0-19-8.5-19-19c0-5.5-4.5-10-10-10H237c-2.5,0-4.5-2-4.5-4.5s2-4.5,4.5-4.5h9.2
			c10.5,0,19,8.5,19,19c0,5.5,4.5,10,10,10h14.5c2.5,0,4.5,2,4.5,4.5S292.1,264,289.6,264z"/>
	</g>
	<g>
		<path fill="#BF4D52" d="M263.4,290h-11.9c-10.5,0-19-8.5-19-19v-2c0-2.5,2-4.5,4.5-4.5s4.5,2,4.5,4.5v2c0,5.5,4.5,10,10,10h11.9
			c1.6,0,3.3-0.4,4.7-1.2l23.7-12.6c2.2-1.2,4.9-0.3,6.1,1.9c1.2,2.2,0.3,4.9-1.9,6.1l-23.7,12.6C269.5,289.2,266.5,290,263.4,290z"
			/>
	</g>
	<g>
		<path fill="#BF4D52" d="M266.8,328.2c-2.5,0-4.5-2-4.5-4.5v-3.5c0-10.5,8.5-19,19-19h3.7c3.8,0,7.2-2.1,8.9-5.4l10.2-19.9
			c1.1-2.2,3.8-3.1,6.1-2c2.2,1.1,3.1,3.8,2,6.1l-10.2,19.9c-3.3,6.4-9.7,10.3-16.9,10.3h-3.7c-5.5,0-10,4.5-10,10v3.5
			C271.3,326.2,269.3,328.2,266.8,328.2z"/>
	</g>
	<g>
		<path fill="#BF4D52" d="M311.5,328.2c-2.5,0-4.5-2-4.5-4.5v-13.2c0-6.1,4.9-11,11-11c1.1,0,2-0.9,2-2v-17.8c0-2.5,2-4.5,4.5-4.5
			s4.5,2,4.5,4.5v17.8c0,6.1-4.9,11-11,11c-1.1,0-2,0.9-2,2v13.2C316,326.2,314,328.2,311.5,328.2z"/>
	</g>
	<g>
		<path fill="#BF4D52" d="M400.9,264h-14.5c-2.5,0-4.5-2-4.5-4.5s2-4.5,4.5-4.5h14.5c5.5,0,10-4.5,10-10c0-10.5,8.5-19,19-19h9.2
			c2.5,0,4.5,2,4.5,4.5s-2,4.5-4.5,4.5h-9.2c-5.5,0-10,4.5-10,10C419.9,255.5,411.4,264,400.9,264z"/>
	</g>
	<g>
		<path fill="#BF4D52" d="M424.6,290h-11.9c-3.1,0-6.2-0.8-8.9-2.2l-23.7-12.6c-2.2-1.2-3-3.9-1.9-6.1c1.2-2.2,3.9-3,6.1-1.9
			l23.7,12.6c1.4,0.8,3.1,1.2,4.7,1.2h11.9c5.5,0,10-4.5,10-10v-2c0-2.5,2-4.5,4.5-4.5s4.5,2,4.5,4.5v2
			C443.6,281.5,435,290,424.6,290z"/>
	</g>
	<g>
		<path fill="#BF4D52" d="M409.2,328.2c-2.5,0-4.5-2-4.5-4.5v-3.5c0-5.5-4.5-10-10-10h-3.7c-7.2,0-13.6-4-16.9-10.3L364,280
			c-1.1-2.2-0.3-4.9,2-6.1c2.2-1.1,4.9-0.3,6.1,2l10.2,19.9c1.7,3.4,5.1,5.4,8.9,5.4h3.7c10.5,0,19,8.5,19,19v3.5
			C413.7,326.2,411.7,328.2,409.2,328.2z"/>
	</g>
	<g>
		<path fill="#BF4D52" d="M364.6,328.2c-2.5,0-4.5-2-4.5-4.5v-13.2c0-1.1-0.9-2-2-2c-6.1,0-11-4.9-11-11v-17.8c0-2.5,2-4.5,4.5-4.5
			s4.5,2,4.5,4.5v17.8c0,1.1,0.9,2,2,2c6.1,0,11,4.9,11,11v13.2C369.1,326.2,367.1,328.2,364.6,328.2z"/>
	</g>
	<g>
		<path fill="#F8AFAF" d="M384.4,206.1c-6.4-1.2-9.3-4.2-4.5-11.1c0,0-0.1,0-0.2,0.1c0.8-0.4,9.3-5.9,5.9-28.5
			c-3.8-25.7-36.2-40.2-36.5-40.3c-3-1.3-4.4-4.9-3.1-7.9c1.3-3,4.9-4.4,7.9-3.1c1.6,0.7,38.8,17.3,43.6,49.6
			C402.5,197.8,386.3,205.4,384.4,206.1z"/>
	</g>
	<circle fill="#E64E63" cx="287.4" cy="198.7" r="8.6"/>
	<circle fill="#E64E63" cx="278.8" cy="177.3" r="4.3"/>
</g>
<g>
	<path fill="#C84F64" d="M356.9,602.2h-38.6c-21.6,0-39.2-17.6-39.2-39.2V534c0-18.6,13.2-34.8,31.4-38.5c8.7-1.8,17.6-2.7,26.5-2.7
		c9.3,0,18.8,1,28.2,3c18,3.7,31,19.9,31,38.4V563C396.1,584.6,378.5,602.2,356.9,602.2z M336.8,501.9c-8.2,0-16.5,0.8-24.7,2.5
		c-14,2.8-24.2,15.3-24.2,29.6V563c0,16.7,13.6,30.2,30.2,30.2h38.6c16.7,0,30.2-13.6,30.2-30.2v-28.7c0-14.3-10-26.7-23.9-29.6
		C354.4,502.8,345.5,501.9,336.8,501.9z"/>
	<g>
		<path fill="#C84F64" d="M416.5,455.3c-6.9-6.9-19.5-12-29.3-12c-5.7,0-10.5,1.7-13.7,4.9c-10.3,10.3-2.8,33.1,7.1,43
			c4.8,4.8,11.2,7.4,18,7.4c4.6,0,9-1.2,12.9-3.5c1.8-1.1,3.5-2.4,5.1-3.9c0.8-0.8,1.5-1.6,2.1-2.4c3.5-4.4,5.3-9.8,5.3-15.6
			C424,466.4,421.3,460,416.5,455.3z M387,484.8c-7.5-7.5-12.6-24.8-7.1-30.3c1.9-1.9,5-2.3,7.3-2.3c8.4,0,18.4,4.9,22.9,9.4
			c3.1,3.1,4.8,7.2,4.8,11.6c0,4.3-1.7,8.4-4.7,11.5c-0.1,0.1-0.2,0.1-0.2,0.2c-3.1,3-7.1,4.7-11.5,4.7
			C394.2,489.6,390.1,487.9,387,484.8z"/>
		<path fill="#F26847" d="M415,473.2c0,4.3-1.7,8.4-4.7,11.5c-0.1,0.1-0.2,0.1-0.2,0.2c-3.1,3-7.1,4.7-11.5,4.7
			c-4.4,0-8.5-1.7-11.6-4.8c-7.5-7.5-12.6-24.8-7.1-30.3c1.9-1.9,5-2.3,7.3-2.3c8.4,0,18.4,4.9,22.9,9.4
			C413.3,464.7,415,468.8,415,473.2z"/>
	</g>
	<g>
		<path fill="#C84F64" d="M419.6,523.1c-4.3,7-12.2,11-23.5,11.9c-1.4,0.1-2.9,0.2-4.5,0.2h-0.2c-2.3,0-4.3-1.8-4.5-4
			c0-0.2,0-0.3,0-0.5c0-2.2,1.6-4.1,3.7-4.4c0.2,0,0.5-0.1,0.8-0.1c1.3,0,2.6,0,3.8-0.1c8.3-0.6,13.9-3.1,16.7-7.6
			c4-6.5,1.9-16.6-0.5-23.3c-0.8-2.1-1.5-3.9-2.1-5.1c-0.9-1.7-0.5-3.8,0.7-5.1c0.1-0.1,0.2-0.1,0.2-0.2c0.3-0.3,0.7-0.5,1-0.7
			c2.2-1.1,4.9-0.2,6,2c0.1,0.2,0.6,1.2,1.3,2.8C421.3,495.3,426.7,511.4,419.6,523.1z"/>
	</g>
	<g>
		<path fill="#C84F64" d="M350,502.6c-2.5,0-4.5-2-4.5-4.5V483c0-2.5,2-4.5,4.5-4.5s4.5,2,4.5,4.5v15.1
			C354.5,500.6,352.5,502.6,350,502.6z"/>
	</g>
	<g>
		<path fill="#C84F64" d="M350,457.2c-6.2,0-11.6,3.8-13.9,9.2c-0.8,1.8-1.2,3.9-1.2,6c0,2.1,0.4,4.2,1.2,6c1.8,4,5.2,7.2,9.4,8.5
			c1.4,0.4,2.9,0.7,4.5,0.7s3.1-0.2,4.5-0.7c6.2-1.9,10.7-7.7,10.7-14.5C365.2,464,358.3,457.2,350,457.2z M350,478.5
			c-3.4,0-6.2-2.8-6.2-6.2c0-3.4,2.8-6.2,6.2-6.2c3.4,0,6.2,2.8,6.2,6.2C356.2,475.7,353.4,478.5,350,478.5z"/>
		<path fill="#F58F71" d="M356.2,472.3c0,3.4-2.8,6.2-6.2,6.2c-3.4,0-6.2-2.8-6.2-6.2c0-3.4,2.8-6.2,6.2-6.2
			C353.4,466.2,356.2,468.9,356.2,472.3z"/>
	</g>
	<g>
		<path fill="#C84F64" d="M322.1,502.6c-2.5,0-4.5-2-4.5-4.5V483c0-2.5,2-4.5,4.5-4.5s4.5,2,4.5,4.5v15.1
			C326.6,500.6,324.6,502.6,322.1,502.6z"/>
	</g>
	<g>
		<path fill="#C84F64" d="M336.1,466.3c-2.3-5.4-7.7-9.2-13.9-9.2c-8.4,0-15.2,6.8-15.2,15.2c0,6.8,4.5,12.6,10.7,14.5
			c1.4,0.4,2.9,0.7,4.5,0.7s3.1-0.2,4.5-0.7c4.2-1.3,7.7-4.5,9.4-8.5c0.8-1.8,1.2-3.9,1.2-6C337.3,470.2,336.9,468.2,336.1,466.3z
			 M322.1,478.5c-3.4,0-6.2-2.8-6.2-6.2c0-3.4,2.8-6.2,6.2-6.2c3.4,0,6.2,2.8,6.2,6.2C328.3,475.7,325.5,478.5,322.1,478.5z"/>
		<path fill="#F58F71" d="M328.3,472.3c0,3.4-2.8,6.2-6.2,6.2c-3.4,0-6.2-2.8-6.2-6.2c0-3.4,2.8-6.2,6.2-6.2
			C325.5,466.2,328.3,468.9,328.3,472.3z"/>
	</g>
	<g>
		<path fill="#C84F64" d="M419,549.8h-26.6c-2.5,0-4.5-2-4.5-4.5s2-4.5,4.5-4.5H419c2.5,0,4.5,2,4.5,4.5S421.5,549.8,419,549.8z"/>
	</g>
	<g>
		<path fill="#C84F64" d="M419,565.2h-26.6c-2.5,0-4.5-2-4.5-4.5s2-4.5,4.5-4.5H419c2.5,0,4.5,2,4.5,4.5S421.5,565.2,419,565.2z"/>
	</g>
	<g>
		<path fill="#C84F64" d="M419,580.5h-26.6c-2.5,0-4.5-2-4.5-4.5s2-4.5,4.5-4.5H419c2.5,0,4.5,2,4.5,4.5S421.5,580.5,419,580.5z"/>
	</g>
	<g>
		<path fill="#C84F64" d="M301.1,448.2c-3.2-3.2-8-4.9-13.7-4.9c-9.9,0-22.5,5.2-29.3,12c-4.8,4.8-7.4,11.2-7.4,18
			c0,5.7,1.9,11.1,5.3,15.6c0.6,0.8,1.3,1.6,2.1,2.4c1.5,1.5,3.3,2.9,5.1,3.9c3.9,2.3,8.3,3.5,12.9,3.5c6.8,0,13.2-2.6,18-7.4
			C303.8,481.3,311.3,458.4,301.1,448.2z M287.6,484.8c-3.1,3.1-7.2,4.8-11.6,4.8c-4.3,0-8.4-1.7-11.5-4.7c-0.1-0.1-0.2-0.1-0.2-0.2
			c-3-3.1-4.7-7.2-4.7-11.5c0-4.4,1.7-8.5,4.8-11.6c4.5-4.5,14.5-9.4,22.9-9.4c2.3,0,5.4,0.4,7.3,2.3
			C300.2,460,295.2,477.3,287.6,484.8z"/>
		<path fill="#F26847" d="M287.6,484.8c-3.1,3.1-7.2,4.8-11.6,4.8c-4.3,0-8.4-1.7-11.5-4.7c-0.1-0.1-0.2-0.1-0.2-0.2
			c-3-3.1-4.7-7.2-4.7-11.5c0-4.4,1.7-8.5,4.8-11.6c4.5-4.5,14.5-9.4,22.9-9.4c2.3,0,5.4,0.4,7.3,2.3
			C300.2,460,295.2,477.3,287.6,484.8z"/>
	</g>
	<g>
		<path fill="#C84F64" d="M287.7,530.6c0,2.4-1.8,4.3-4.2,4.5c-0.1,0-0.2,0-0.3,0c-1.5,0-2.8,0-4.2-0.1c-11.5-0.8-19.6-4.8-24-11.9
			c-7.2-11.7-1.7-27.8,0.9-34.3c0.7-1.6,1.2-2.6,1.3-2.8c1.1-2.2,3.8-3.1,6-2c0.4,0.2,0.7,0.4,1.1,0.7c0.1,0.1,0.1,0.1,0.2,0.2
			c1.3,1.3,1.6,3.4,0.7,5.1c-0.6,1.2-1.4,3-2.1,5.1c-2.3,6.7-4.5,16.8-0.5,23.3c2.8,4.6,8.6,7.1,17.1,7.6c1.1,0.1,2.2,0.1,3.3,0.1
			c0.4,0,0.8,0.1,1.2,0.2C286.3,526.8,287.7,528.5,287.7,530.6z"/>
	</g>
	<g>
		<path fill="#C84F64" d="M283.2,549.8h-26.6c-2.5,0-4.5-2-4.5-4.5s2-4.5,4.5-4.5h26.6c2.5,0,4.5,2,4.5,4.5S285.7,549.8,283.2,549.8
			z"/>
	</g>
	<g>
		<path fill="#C84F64" d="M283.2,565.2h-26.6c-2.5,0-4.5-2-4.5-4.5s2-4.5,4.5-4.5h26.6c2.5,0,4.5,2,4.5,4.5S285.7,565.2,283.2,565.2
			z"/>
	</g>
	<g>
		<path fill="#C84F64" d="M283.2,580.5h-26.6c-2.5,0-4.5-2-4.5-4.5s2-4.5,4.5-4.5h26.6c2.5,0,4.5,2,4.5,4.5S285.7,580.5,283.2,580.5
			z"/>
	</g>
	<g>
		<path fill="#F58F71" d="M359.8,585.6H318c-3.3,0-6-2.7-6-6s2.7-6,6-6h41.8c4,0,7.3-3.3,7.3-7.3c0-3.3,2.7-6,6-6s6,2.7,6,6
			C379.1,576.9,370.4,585.6,359.8,585.6z"/>
	</g>
</g>
<g>
	<path fill="#6E6C91" d="M1077.4,94.1h-10.5c-24.3,0-44.1,19.8-44.1,44.1V245c0,2.5,2,4.5,4.5,4.5h89.7c2.5,0,4.5-2,4.5-4.5V138.3
		C1121.5,113.9,1101.7,94.1,1077.4,94.1z M1112.5,240.5h-80.7V138.3c0-19.4,15.8-35.1,35.1-35.1h10.5c19.4,0,35.1,15.8,35.1,35.1
		V240.5z"/>
	<g>
		<path fill="#6E6C91" d="M1093.1,240.5h-41c-2.5,0-4.5,2-4.5,4.5v24c0,2.5,2,4.5,4.5,4.5h41c2.5,0,4.5-2,4.5-4.5v-24
			C1097.6,242.5,1095.6,240.5,1093.1,240.5z M1088.6,264.5h-32v-15h32V264.5z"/>
		<rect x="1056.6" y="249.5" fill="#FDC172" width="32" height="15"/>
	</g>
	<g>
		<path fill="#6E6C91" d="M1061.3,225.3h-9.7c-1.3,0-2.5-0.7-3.2-1.8c-2.1-3.5,0.4-7.2,3.7-7.2h9.7c1.2,0,2.3,0.5,3,1.5
			C1067.3,221.4,1064.7,225.3,1061.3,225.3z"/>
	</g>
	<g>
		<path fill="#6E6C91" d="M1093.1,225.3h-9.7c-1.2,0-2.3-0.5-3-1.5c-2.5-3.6,0.1-7.5,3.5-7.5h9.7c1.2,0,2.3,0.5,3,1.5
			C1099.1,221.4,1096.5,225.3,1093.1,225.3z"/>
	</g>
	<g>
		<path fill="#6E6C91" d="M1120.2,290h-18.4c-14.1,0-25.6-9.4-25.6-21c0-2.5,2-4.5,4.5-4.5s4.5,2,4.5,4.5c0,6.5,7.6,12,16.6,12h18.4
			c9,0,16.6-5.5,16.6-12v-76.3c0-2.5,2-4.5,4.5-4.5s4.5,2,4.5,4.5V269C1145.9,280.6,1134.4,290,1120.2,290z"/>
	</g>
	<g>
		<path fill="#6E6C91" d="M1042.5,290h-18.4c-14.1,0-25.6-9.4-25.6-21v-76.3c0-2.5,2-4.5,4.5-4.5s4.5,2,4.5,4.5V269
			c0,6.5,7.6,12,16.6,12h18.4c9,0,16.6-5.5,16.6-12c0-2.5,2-4.5,4.5-4.5s4.5,2,4.5,4.5C1068.1,280.6,1056.6,290,1042.5,290z"/>
	</g>
	<g>
		<path fill="#6E6C91" d="M1145.2,305.2h-45.1c-13.2,0-23.9-8.8-23.9-19.7c0-2.5,2-4.5,4.5-4.5s4.5,2,4.5,4.5
			c0,5.8,6.8,10.7,14.9,10.7h45.1c2.5,0,4.5,2,4.5,4.5S1147.7,305.2,1145.2,305.2z"/>
	</g>
	<g>
		<path fill="#6E6C91" d="M1044.2,305.2h-45.1c-2.5,0-4.5-2-4.5-4.5s2-4.5,4.5-4.5h45.1c8.1,0,14.9-4.9,14.9-10.7
			c0-2.5,2-4.5,4.5-4.5s4.5,2,4.5,4.5C1068.1,296.3,1057.4,305.2,1044.2,305.2z"/>
	</g>
	<g>
		<path fill="#6E6C91" d="M1080.7,328.2c-2.5,0-4.5-2-4.5-4.5v-51c0-2.5,2-4.5,4.5-4.5s4.5,2,4.5,4.5v51
			C1085.2,326.2,1083.2,328.2,1080.7,328.2z"/>
	</g>
	<g>
		<path fill="#6E6C91" d="M1063.6,328.2c-2.5,0-4.5-2-4.5-4.5v-51c0-2.5,2-4.5,4.5-4.5s4.5,2,4.5,4.5v51
			C1068.1,326.2,1066.1,328.2,1063.6,328.2z"/>
	</g>
	<g>
		<path fill="#FFEBC4" d="M1100.4,168.7c-0.1,0-0.2,0-0.3,0c-3.3-0.2-5.9-3-5.7-6.3c1.4-29-6.4-37-9.5-37.6c0.2,0,0.4,0,0.4,0
			c-7.6-4.6-5.6-13.2,0.7-12c2.3,0.1,22.6,2.8,20.4,50.1C1106.2,166.2,1103.6,168.7,1100.4,168.7z"/>
	</g>
</g>
<g>
	<g>
		<path fill="#FFCD81" d="M746,805c-7,4-15,15-21,7c-4-5,4-12,1-18c-3-5-10-6-13-2c-4,6-5,15-11,18c-11,4-6-14-13-19c-3-1-7-2-10-1
			c-8,7-2,20-9,25c-9,6-15-10-23-14c-4-2-7,2-9,5c-0.1,0.5-0.3,1-0.3,1.5C649.4,830.4,673,845,699,845h0c23.1,0,44.3-11.5,57-30.1
			c-0.2-1.3-0.6-2.6-1-3.9C754,807,751,803,746,805z"/>
		<path fill="#FBEA94" d="M765,743.3c-46.7-26.7-90.6-24.4-132.3-0.1c-10.7,6.3-15.1,19.6-10,31L636,804c0.5,1.2,1.1,2.3,1.7,3.5
			c0.1-0.5,0.2-1,0.3-1.5c2-3,5-7,9-5c8,4,14,20,23,14c7-5,1-18,9-25c3-1,7,0,10,1c7,5,2,23,13,19c6-3,7-12,11-18c3-4,10-3,13,2
			c3,6-5,13-1,18c6,8,14-3,21-7c5-2,8,2,9,6c0.4,1.3,0.7,2.6,1,3.9c2.3-3.4,4.3-7,6-10.8l13.2-29.7
			C780.2,762.9,775.9,749.5,765,743.3z"/>
		<path fill="#E58B26" d="M699,849.5c-29,0-55.4-17.1-67.1-43.7L618.6,776c-6-13.5-0.9-29.2,11.9-36.7
			c22.4-13.1,45.3-19.7,67.9-19.7c22.7,0,45.9,6.7,68.8,19.8c12.9,7.4,18.1,23.2,12,36.8l-13.2,29.7
			C754.4,832.4,728,849.5,699,849.5z M698.4,728.6c-21,0-42.4,6.2-63.4,18.5c-8.8,5.1-12.3,16-8.2,25.2l13.3,29.9
			c10.3,23.3,33.4,38.3,58.9,38.3h0c25.5,0,48.6-15,58.9-38.3l13.2-29.7c4.1-9.4,0.6-20.2-8.3-25.3
			C741.2,734.9,719.6,728.6,698.4,728.6z"/>
	</g>
	<g>
		<path fill="#E58B26" d="M698.8,885.6C698.8,885.6,698.8,885.6,698.8,885.6c-7.3,0-14.7-2.1-21.9-6.3c-5.2-3-7.3-9.5-4.8-15l4-8.9
			c4-9.1,13-14.9,22.9-14.9c9.9,0,18.9,5.9,22.9,14.9l3.9,8.9c2.5,5.5,0.3,12-4.9,15C713.6,883.5,706.1,885.6,698.8,885.6z"/>
		<path fill="#FFCD81" d="M694,860c7.3,4,12.8,0.5,17.4-4.6c-3-3.7-7.5-5.9-12.4-5.9c-4.5,0-8.7,1.9-11.7,5.1
			C689.3,857,692.1,858.7,694,860z"/>
		<path fill="#FBEA94" d="M713.7,859.1c-0.6-1.3-1.4-2.6-2.3-3.7c-4.6,5.1-10.2,8.5-17.4,4.6c-1.9-1.3-4.7-3-6.7-5.4
			c-1.2,1.3-2.3,2.8-3,4.5l-4,8.9c-0.6,1.3-0.1,2.8,1.1,3.5c5.9,3.4,11.5,5.1,17.3,5.1c5.8,0,11.7-1.7,17.7-5.1
			c1.2-0.7,1.7-2.2,1.1-3.5L713.7,859.1z"/>
	</g>
	<g>
		<path fill="#E58B26" d="M699,819c-2.5,0-4.5-2-4.5-4.5v-45.8c0-2.5,2-4.5,4.5-4.5c2.5,0,4.5,2,4.5,4.5v45.8
			C703.5,817,701.5,819,699,819z"/>
	</g>
	<g>
		<path fill="#E58B26" d="M722.3,819c-2.3,0-4.2-1.7-4.5-4c-0.3-2.5,1.5-4.7,4-4.9c9-0.9,14-19.7,15.1-26.2c0.4-2.5,2.7-4.1,5.2-3.7
			c2.5,0.4,4.1,2.7,3.7,5.1c-0.5,3.3-5.6,31.9-23,33.7C722.7,819,722.5,819,722.3,819z"/>
	</g>
	<g>
		<path fill="#E58B26" d="M677.8,819c-0.2,0-0.3,0-0.5,0c-17.5-1.8-22.5-30.5-23-33.7c-0.4-2.5,1.3-4.8,3.7-5.1
			c2.5-0.4,4.8,1.3,5.1,3.7l0,0c1,6.5,6,25.2,15.1,26.2c2.5,0.3,4.3,2.5,4,4.9C682,817.3,680.1,819,677.8,819z"/>
	</g>
	<g>
		<path fill="#FFF7E3" d="M758,774.7c-0.5,0-1.1-0.1-1.6-0.2c-3.2-0.9-5.1-4.2-4.2-7.4c0.4-1.3-2-3.1-2.3-3.3l-0.4-0.3
			c-11.3-8.3-40.8-13.5-51.3-14.9c-3.3-0.4-5.6-3.4-5.2-6.7c0.4-3.3,3.4-5.6,6.7-5.2c1.6,0.2,40.4,5.3,56.6,17
			c3.9,2.5,9.7,8.6,7.4,16.6C763,772.9,760.6,774.7,758,774.7z"/>
	</g>
</g>
<g>
	<path fill="none" d="M652,266c-1.9,3.8-4.2,7.7-6.9,11.6c0.4-0.5,0.7-1,1.1-1.6c2-3.2,7.2-5.4,14.1-6.5
		c10.3-21.3,8.7-39.4,4.7-51.8c-5.5-17.1-16.4-27.2-16.8-27.6c-1.8-1.7-4.7-1.5-6.4,0.3c-1.7,1.8-1.5,4.7,0.3,6.3
		c0.1,0.1,9.5,8.8,14.3,23.7c4.4,13.9,3.4,28.2-3.1,42.7C653.7,264.1,653.1,265,652,266z"/>
	<path fill="none" d="M677.1,280.9c1,3.9,3.9,7,7.7,8.3c11.8,3.9,20,5.8,24.5,5.8c2.5,0,4.3-0.6,5.7-1.8c1.8-1.7,2.8-3.8,2.9-6.2
		c0-2.2-0.8-4.3-1.8-5.8c0.4-0.6,0.9-1.3,1.4-2c-7.8-6-22.4-9.6-36.4-10.5c-0.4,0.4-0.8,0.8-1.2,1.2
		C677.2,272.9,676.1,277,677.1,280.9z"/>
	<path fill="none" d="M725.1,258c-0.4-3.8-2.2-7-5.2-9.2c-1.8-1.4-4-2.1-6.5-2.1c-7.6,0-18.5,7.4-32.3,22c14,0.9,28.6,4.5,36.4,10.5
		C721.1,273.9,725.9,265.5,725.1,258z"/>
	<path fill="none" d="M653.4,263.1c-0.4,1-0.9,1.9-1.4,2.9C653.1,265,653.7,264.1,653.4,263.1z"/>
	<path fill="none" d="M646.2,276c-0.3,0.6-0.7,1.1-1.1,1.6c-1.1,1.6-2.3,3.2-3.5,4.9c-1.5,2-1.1,4.8,0.8,6.3
		c0.8,0.6,1.8,0.9,2.7,0.9c1.4,0,2.7-0.6,3.6-1.8c4.9-6.4,8.7-12.5,11.6-18.5C653.4,270.6,648.2,272.8,646.2,276z"/>
	<path fill="none" d="M741.6,205.7c-1.3-1.1-31.6-27-63-19.5c-3.2,0.8-5.2,4-4.5,7.2c0.8,3.2,4,5.2,7.2,4.5
		c25.3-6,52,16.6,52.3,16.9c1.1,1,2.5,1.5,3.9,1.5c1.7,0,3.3-0.7,4.5-2.1C744.4,211.7,744.1,207.9,741.6,205.7z"/>
	<path fill="none" d="M622.4,218.5h-4.5c-2.5,0-4.5,2-4.5,4.5s2,4.5,4.5,4.5h4.5c2.5,0,4.5-2,4.5-4.5S624.9,218.5,622.4,218.5z"/>
	<path fill="#76CEDB" d="M768,239.5c-12.7-0.1-34,55-49,41c-0.5-0.4-1-0.9-1.5-1.3c-0.5,0.7-1,1.4-1.4,2c1,1.6,1.8,3.6,1.8,5.8
		c0,2.4-1,4.5-2.9,6.2c-1.3,1.2-3.2,1.8-5.7,1.8c-4.5,0-12.8-2-24.5-5.8c-3.8-1.3-6.7-4.4-7.7-8.3c-1-3.9,0.1-8,2.8-10.9
		c0.4-0.4,0.8-0.8,1.2-1.2c-7.5-0.5-14.8-0.3-20.8,0.8c-2.9,5.9-6.6,12.1-11.6,18.5c-0.9,1.2-2.2,1.8-3.6,1.8c-1,0-1.9-0.3-2.7-0.9
		c-2-1.5-2.3-4.3-0.8-6.3c1.2-1.6,2.4-3.2,3.5-4.9c-7.2,9.7-18.2,5.6-9.1-1.6c4.9-3.9,12.8-7.1,16-10c0.5-1,0.9-1.9,1.4-2.9
		c-0.5-1.6-3.5-3.1-10.6-4.6c-16.5-3.6-38.5,5.5-49.8,11.1c6,7.7,13.6,13.6,20.5,18c17.5,11,41,17.8,61.2,17.8
		c30.7,0,86.3-16.9,101.8-48.4C776.7,248.9,775.3,239.6,768,239.5z"/>
	<path fill="#97D8E7" d="M780.7,239.3c-0.2-42.5-70.1-65.6-106-65.6c-20.3,0-43.7,6.8-61.2,17.8c-14.3,8.9-31.2,24.5-31.2,48.1
		c0,12.1,4.4,22,10.7,30.1c11.3-5.5,33.3-14.6,49.8-11.1c7.1,1.5,10.1,3,10.6,4.6c6.5-14.5,7.5-28.8,3.1-42.7
		c-4.8-14.9-14.2-23.6-14.3-23.7c-1.8-1.7-2-4.5-0.3-6.3c1.7-1.8,4.5-2,6.4-0.3c0.5,0.4,11.3,10.5,16.8,27.6
		c4,12.4,5.6,30.4-4.7,51.8c6-1,13.3-1.3,20.8-0.8c13.9-14.6,24.7-22,32.3-22c2.5,0,4.6,0.7,6.5,2.1c3,2.3,4.8,5.4,5.2,9.2
		c0.8,7.4-4,15.9-7.6,21.2c0.5,0.4,1,0.8,1.5,1.3c15,14,36.3-41.1,49-41c7.3,0.1,8.7,9.4,8.5,17.4c2.6-5.3,4.1-11.1,4.2-17.3
		C780.7,239.5,780.7,239.4,780.7,239.3z M622.4,227.5h-4.5c-2.5,0-4.5-2-4.5-4.5s2-4.5,4.5-4.5h4.5c2.5,0,4.5,2,4.5,4.5
		S624.9,227.5,622.4,227.5z M742.2,214.2c-1.2,1.4-2.9,2.1-4.5,2.1c-1.4,0-2.8-0.5-3.9-1.5c-0.3-0.3-27-22.9-52.3-16.9
		c-3.2,0.8-6.5-1.2-7.2-4.5c-0.8-3.2,1.2-6.5,4.5-7.2c31.4-7.4,61.7,18.4,63,19.5C744.1,207.9,744.4,211.7,742.2,214.2z"/>
	<path fill="#97D8E7" d="M636,276c-9,7.1,1.9,11.3,9.1,1.6c2.7-3.9,5-7.7,6.9-11.6C648.8,268.9,640.9,272.1,636,276z"/>
	<circle fill="#76CEDB" cx="750.3" cy="242.3" r="6"/>
</g>
<circle fill="#F9A66B" cx="1043" cy="171.8" r="6"/>
<circle fill="#F9A66B" cx="1043" cy="156.7" r="4.6"/>
<circle fill="#98D6D3" cx="608.8" cy="546.3" r="5.3"/>
<circle fill="#E05038" cx="377.6" cy="531.7" r="3.1"/>
<circle fill="#E05038" cx="300.5" cy="530.2" r="3.8"/>
</svg>
